/* XPM */
static char *_2943c56991249a9e66aee847bad38558DZ2IaHR2hBqy7ia[] = {
/* columns rows colors chars-per-pixel */
"63 63 246 2 ",
"   c #1A0B00",
".  c #1A1802",
"X  c #360900",
"o  c #271A07",
"O  c #341A03",
"+  c #270F00",
"@  c #1B2A0F",
"#  c #28260C",
"$  c #382604",
"%  c #3D3A19",
"&  c #372F10",
"*  c #2D3520",
"=  c #4B0B02",
"-  c #540D02",
";  c #481701",
":  c #581701",
">  c #531B11",
",  c #651A05",
"<  c #482806",
"1  c #5D2300",
"2  c #592706",
"3  c #4A3107",
"4  c #592B16",
"5  c #483519",
"6  c #583716",
"7  c #4E320E",
"8  c #632304",
"9  c #6A2708",
"0  c #732502",
"q  c #772B08",
"w  c #69350A",
"e  c #793506",
"r  c #692917",
"t  c #663717",
"y  c #773817",
"u  c #762C13",
"i  c #493C27",
"p  c #3C521C",
"a  c #33491B",
"s  c #384728",
"d  c #395635",
"f  c #3B5A28",
"g  c #39743E",
"h  c #504E1B",
"j  c #775505",
"k  c #694517",
"l  c #77490E",
"z  c #474825",
"x  c #574A27",
"c  c #46592B",
"v  c #4A5231",
"b  c #7C4726",
"n  c #685029",
"m  c #586735",
"M  c #486634",
"N  c #6A6E39",
"B  c #3D7845",
"V  c #435E42",
"C  c #476745",
"Z  c #576C49",
"A  c #447B48",
"S  c #58734A",
"D  c #477B55",
"F  c #597858",
"G  c #687753",
"H  c #6A7643",
"J  c #872D02",
"K  c #883806",
"L  c #94370A",
"P  c #873916",
"I  c #963C15",
"U  c #902D0F",
"Y  c #A63E09",
"T  c #963D23",
"R  c #813B21",
"E  c #9A4507",
"W  c #88481A",
"Q  c #964816",
"!  c #9D581B",
"~  c #8D5410",
"^  c #A74808",
"/  c #AA550E",
"(  c #B85A08",
")  c #A44B16",
"_  c #A65716",
"`  c #B75715",
"'  c #B14803",
"]  c #AB631B",
"[  c #B96318",
"{  c #BF6109",
"}  c #894A25",
"|  c #9A4B2A",
" . c #895624",
".. c #985728",
"X. c #915435",
"o. c #A44D24",
"O. c #A85625",
"+. c #B65A25",
"@. c #A95B35",
"#. c #B25D38",
"$. c #957033",
"%. c #A46727",
"&. c #B9632A",
"*. c #BA6734",
"=. c #B36F31",
"-. c #C45D15",
";. c #C76918",
":. c #C97119",
">. c #D6791A",
",. c #CA6B10",
"<. c #E47D18",
"1. c #C15F25",
"2. c #C76728",
"3. c #D16A25",
"4. c #C47223",
"5. c #C8742B",
"6. c #D77926",
"7. c #C56434",
"8. c #C77836",
"9. c #D77837",
"0. c #E37D26",
"q. c #E57C3B",
"w. c #985E44",
"e. c #B26D42",
"r. c #D47F48",
"t. c #3E8455",
"y. c #3F9767",
"u. c #46874D",
"i. c #568D4E",
"p. c #428355",
"a. c #438A55",
"s. c #4B8D56",
"d. c #43855A",
"f. c #458D5C",
"g. c #4C8D5C",
"h. c #4B8659",
"j. c #538D53",
"k. c #538D5D",
"l. c #5B8B5D",
"z. c #558859",
"x. c #4B9355",
"c. c #45925D",
"v. c #4C925D",
"b. c #48965A",
"n. c #519255",
"m. c #52935C",
"M. c #5C9B5D",
"N. c #579759",
"B. c #4F9249",
"V. c #63845C",
"C. c #648657",
"Z. c #639A5C",
"A. c #72864A",
"S. c #5FA05E",
"D. c #64A15C",
"F. c #468E62",
"G. c #4C8E62",
"H. c #4A8B65",
"J. c #528D63",
"K. c #5B8D63",
"L. c #558E6B",
"P. c #5A8865",
"I. c #469364",
"U. c #4E9565",
"Y. c #4D9263",
"T. c #4C936A",
"R. c #4C996B",
"E. c #499767",
"W. c #519265",
"Q. c #519566",
"!. c #529364",
"~. c #5A9463",
"^. c #549964",
"/. c #5C9C64",
"(. c #539369",
"). c #5A936A",
"_. c #53996B",
"`. c #589B6C",
"'. c #579372",
"]. c #638C64",
"[. c #648865",
"{. c #649A64",
"}. c #5EA267",
"|. c #64A36B",
" X c #6BA46B",
".X c #69A869",
"XX c #6BAB72",
"oX c #67A372",
"OX c #71AF76",
"+X c #72B373",
"@X c #78B576",
"#X c #73B06B",
"$X c #A48535",
"%X c #D98519",
"&X c #DD8917",
"*X c #E98B1A",
"=X c #CC8329",
"-X c #D88A2B",
";X c #D98938",
":X c #DC933A",
">X c #D08A31",
",X c #E58C2B",
"<X c #E78A25",
"1X c #EA9628",
"2X c #F59A28",
"3X c #E68B37",
"4X c #E79838",
"5X c #F59C32",
"6X c #F49B3A",
"7X c #F69733",
"8X c #F08E33",
"9X c #F7A32B",
"0X c #ECA33A",
"qX c #FCAB3D",
"wX c #F7A637",
"eX c #FDB53B",
"rX c #FBB638",
"tX c #ECAA2B",
"yX c #FFA41F",
"uX c #FFC03F",
"iX c #AF8C4A",
"pX c #82B776",
"aX c #D58E4B",
"sX c #E59447",
"dX c #D9A250",
"fX c #E5A645",
"gX c #F8A746",
"hX c #FEB444",
"jX c #FDBC43",
"kX c #F9B64B",
"lX c #FFB859",
"zX c #F1AE52",
"xX c #FABA68",
"cX c #FFC544",
"vX c #FFCB4D",
"bX c #FFC74A",
"nX c #FFCC5C",
"mX c #FFC855",
"MX c #FFD15A",
"NX c #FFD766",
"BX c #FFD576",
"VX c #FFCC6E",
"CX c #7BB783",
"ZX c #FFDA87",
"AX c #FFE287",
"SX c #FFEB94",
/* pixels */
"_.g.p.f.Q.Q.Y.Q.Y.Y.!.Q.Y.f.p.t.c.I.R.U.f.g.(.W.t.`.p.h.h.T.T.R.d.U.v.c.t.v.W.(.(.(.Y.Y.U.U.I.d.p.f.Y.Q.Q.Y.g.f.E.U.U.f.f.D J.",
"Y.Y.Y.Y.Q.Y.Y.Y.Y.Y.Y.Y.!.Y.Y.U.v.U.T.T.Y.Y.H.d.f.D !.~.W.H.T.T.v.U.v.v.c.U.Q.Y.G.G.W.I.U.U.Y.F.(.J.Y.Y.Y.Y.U.T.I.U.U.U.J.J.P.",
"p.Y.U.Y.Y.Y.Y.Y.Y.Y.Y.Y.Y.!.Y.Q.!.g.J.T.T.W.f.p.D D Q.Q.Y.T.I.I.!.Y.Y.v.U.I.v.c.I.Y.Y.U.Y.Y.Q.!.(.(.Y.Y.v.Y.U.I.U.v.Y.Q.!.J.K.",
"f.Y.Y.F.F.!.Y.Y.Y.Y.Y.Y.Y.Y.G.v.J.J.!.W.W.Y.Y.f.t.(.g.m.g.U.Y.U.Y.v.v.U.U.v.U.U.Y.Y.U.Y.Y.Y.Y.Q.G.G.Y.W.Y.Y.Y.c.I.T.g.Q.G.J.G.",
"Q.Q.Y.g.!.Y.Y.Y.Y.Y.Y.W.W.Y.Y.Y.Y.Y.U.v.I.T.U.v.Y.Q.m.v.!.v.v.v.v.Y.Q.!.G.Y.Y.~.v.Y.!.G.!.Y.!.Y.Y.Y.Y.Y.Y.Y.Y.U.Y.Y.f.Q.G.(.J.",
"Q.Y.Y.Y.U.Y.g.!.g.Y.Y.Y.Y.Y.!.Y.U.Y.Y.Y.I.T.U.v.m.s.m.n.x.|.v.Y.!.Y.Y.G.!.W.!.v.m.v.v.Y.Y.!.v.Y.W.Y.Y.Y.!.Y.W.Y.Y.Y.Y.U.(.W.G.",
"Y.Y.Y.Y.Y.Y.Y.Y.Y.Y.Y.Y.Y.Y.Y.Y.U.Y.Y.Y.Y.T.Y.v.b.x.v.v.n.+Xm.v.!.Y.G.Y.Y.Y.v.c.U.c.v.U.!.Y.v.v.Y.I.U.U.!.Y.Y.Y.Y.Y.Y.Y.G.H.G.",
"U.Y.Y.Y.W.Y.Y.Y.Y.Y.!.Y.Y.Y.Y.Y.I.Y.Y.!.J.G.Y.U.b.m.v.^.@X#Xm.m.Y.Y.T.Y.Y.v.b.b.b.v.I.^.Y.Y.Y.U.Y.Y.g.Y.Y.Y.Y.!.Y.Y.U.Y.Y.G.(.",
"Y.Y.Y.W.Y.Y.Y.Y.Y.Y.Y.Y.Y.Y.Y.Y.G.!.v.Q.(.f.(.g.N.+Xs.v.+XXXN.v.v.f.U.(.T.Y.g.x.}.XXg.Q.Y.W.U.v.Y.Y.Y.Y.Y.Y.Y.Y.Y.Y.Y.U.H.(.F.",
"Y.Y.Y.Y.G.v.Y.Y.Y.Y.Y.G.Y.v.Y.Y.W.(.v.v.(.(.W.m.^.OXXXB XXB.N.v.U.Y.I.G.G.!.N.x.|.XXa.Y.Q.I.c.v.I.T.Q.Y.!.!.Y.g.Y.Y.Y.Y.G.(.G.",
"Y.Y.G.Y.Y.Y.Y.Y.Y.Y.!.Y.Y.Y.Y.Y.F.Y.R.c.I.I.v.v.v.A CXXXB N.s.v.v.Y.T.I.Y.J. X XZ.XX!.F.I.I.`.c.F.Y.Y.g.Y.Y.Y.Y.Y.Y.Y.Y.G.(.G.",
"Q.!.Y.Y.!.Y.Y.U.Y.Y.Y.Y.Y.Y.Y.Y.U.c.I.I.E.I.v.!.m.h.B B s.s.^.g.Y.I.F.I.T.g. XZ.Z. Xg._.F.(.c.!.W.Y.Y.Y.!.Y.F.U.Y.Y.Y.W.(.J.G.",
"Y.U.Y.Y.U.Y.G.Y.Y.Y.Y.Y.Y.Y.Y.Y.c._.c.!.L.H.G.J.v.U.s.s.^.(.g.^.!.!.T.I.Y.s.#X.Xi.N.^.f.E.E.H.!.Y.G.Y.Y.U.Y.Y.Y.v.I.Y.Y.J.G.P.",
"f.Y.Y.Y.Y.Y.Y.Y.g.Y.Y.Y.G.Y.Y.Y.I.a.{.[.d d ).z.G.Y.^.s.J.G.I.Y.g.!.T.T.Q.z.C.M z f z.G.(.I.W.J.W.W.!.G.g.Y.U.c.U.U.Y.Y.G.k.).",
"p.U.U.g.Y.Y.Y.!.!.Y.Y.Y.Y.!.Y.Y.L.[.Z i 5 # v ).Y.I.U.!.G.(.R.I.v.g.F.J.[.Z x 3 3 # * F H.L.f.!.Q.f.U.U.v.F.U.c.I.U.I.Y.L.z.L.",
"d.U.Q.v.Y.!.Y.Y.Y.v.Y.!.Y.Y.Y.k.l.Z 5 4 r 4 # C G.U.F.Q.G.G.I.Y.!.k.].G z 7 t  .e. .# . S l.].l.C d B J.W.Y.U.U.I.v.v.Q.(.H.J.",
"T.T.b.x.!.J.H.H.!.m.v.U.Y.Y.J.P.Z 5 t q U P 5 V L.L.T.H.T.L.L.L.P.F v 7 w Q ) &.aX*.l < # m G z < & @ l.!.Y.I.R.c.v.m.Y.T.'.g.",
"'.T.b.b.m.~.H.T.!.!.v.U.g.J.z.Z 5 r T I T R > d F F D D B V V V d z t W &.5.2.( ` [ ] aXiXn 3 7 b t # [.z.^.Y.E.T.U.v.Y.T.T.G.",
"U.U.b.x.J.J.y.T.Q.Y.v.c.T.K.Z i } @.| u r > o # @ @ o o         & 4 y O.3X6X6X-X=X:XzXdX$.t w P W y $ G l.v.t.R.E.Y.Y.Y.I.F.W.",
"c.v.v.v.!.W.T.E.G.Y.I.Q.f.Z & b *.*.| u > = X O O 5 4 r 6 t 4 4 4 2 0 o.;X;XkXnXfXdXVX%.1 9 P J P y 6 5 S k._.F.Y.I.I.Y.I.F.Q.",
"f.!.U.I.I.I.R.E.L.~.v.g.Z i w.w.y t y P P P T | .. .! +.8.>X*.*.O.I u R b W $XdX%.l W W W J J Q 0 u } b % F '.T.W.Y.W.Y.v.s.!.",
"s.W.G.Y.b.y.E.T.W.g.v.K.s n X.u r 8 P ..2.5.7.7.aX2.1.2.9.;X;X9.2.&.o.R > ; e ! w : 2 _ 5./ L q w y @.$.5 s H.R.Y.J.W.g.m.n.x.",
"k.l.k.).}.t.b.v.v.Q.Y.G.M o ; u | | O.+.5.9.;.-.;.-.` ) E ~ ` 4.;X9.+.o.b ; X 1 E ] =X6X7X6.| 9 b w.| R 5 V (.c.Y.Y.J.k.N.D.a.",
"!.J.J.|.XXx.x.x.v.g.(.J.F o : P +.r.2.^ ;.:.;.-.,.3.;XsXaX8.:.;.3.3.+.P u y l W [ 4XwX<X%X4.y < < n y < % P.Y.v.Y.W.(.m.Z.#Xf.",
"R.I.c.}.XXs.N.x.U.!.L.F & 2 W +.1.q.3.' ( ,.8.fXwX1XzXAXSXVX4X6.;.+.P 0 0 O.;XfX7X2X3.2.` ~ < v Z @ # s l.l.!.Y.v.k.|..XS.XXJ.",
"y.I.c.}.XXM.#Xn.g.(.D z k ..#.^ ' ;.0.6.>.sXBXZXbX1X4XBXBXkXwX,X;X) , 0 ) 6.eXbXeX8X;.1.O.2 % G K.z.z.z.l.k.W.!.!.v.}.}.m.|.K.",
"t.v.x.M.|.Z.@Xj.G.P.s 5 @.*.1.;.4.>X0XeX1X6XBXZXlX-X%XhXgX&XwX0X=.W 0 Q -XqXbXbXqX%X;.7...$ S L.G.).W.W.v.c.I.F.v.x.}.M.v.G.J.",
"u.b.N.N.N.m. Xz.).F # 4 U ` 3.gXlXnXMXvX1X<XgXfX-X1X4XwX<X%XhXzX~ 8 ! =XhXbXuXtX&X,.[ *...6 [.L.L.J.F.I.R.U.T.T.v.x.n.N.Y.H.J.",
"h.m.!.g.v.v.U.U.J.Z + l =.3X,XrXmXnXNXNXtX%X<X*X&XwXhX,X1XwXlX>X1 8 :XqXrXuXrX*X:.;.` *.%.w f J.J.g._.T.G.G.G.v.m.g.g.k.~.G.L.",
"J.W.W.F.Y.c.c.^.Q.c < =.lXmX9X1X0XnXNXMXeX2X2X2X9XjXkX&X7XlXzX_ 2 ~ fXvXvXtX2X2X,.{ / 8.8.l $ c l.v.W.H.T.W.Y.!.g.!.Q.!.U.f.J.",
"U.U.E.H.T.I.c.!.l.h $.xXgX9XwX:.>XAXBXcXjXjX9X1X1X0XqX2X9XqX3X! < b 0XvXMX9X*X<.;./ ,.,X3X_ 8 $ S Z.s.I.R.T.Y.Y.!.m.Y.F.I.T.J.",
"T.U.T.E.c.Y.(.k.C.c iXxX,X%X1X0XdXAXBXfXwXjX5X%X/ ] =X8X9X1X[ e < k 0XeXeX9X<.,.-.{ %X5XwX/ e 6 p .X~.Y.I.I.I.I.G.Y.U.I.E.T.G.",
"d.T.T.T.(.J.H.(.l.z  .5.1X2X1XNXSXxX0X7X8X<X4._ 1 = e ;X3X2.L - X t 5.2XyXyX<.-.-.>.*X9X7X` q 5 a m.Q.f.Q.T.(.H.T.G.E.T.F.(.z.",
"T.W.E.F.H.(.L.J.m.c  .5.*X9XjXNXVXsX:.,.-.) K P } 4 > } ) J J - X w 2.<X*X9X>.( :.wXeXqX<X^ 8 O M k.g.Y.Q.F.Y.Y.T.Y.I.Y.G.J.P.",
"^.x.U.c.v.~.L.L.J.c  .>X9XrXcXjX3X-.Y Y L J : y e.o., - - , P y ; w O.2.6.8X6.,.%XrXvXtX,.) 2 v [.Y.W.(.W.g.U.!.b.U.U.I.W.H.'.",
"s.b.b.x.v.m.J.(.).c j 0XlXcXrX1X0.Y U U T u ; 1 L I r = - u o.O.u 8 u o.2.3.;.,.tXvXrX-X[ Q 6 G ].G.Y.I.Y.v.Y.v.v.v.v.Y.L.H.'.",
"B `.m.s.x.x.v.U._.f j kXMXmX2X&X:.E U U y y y e J U , = , | *.2.#.u - P +.-.;.,XkXkX1X>.] l z l.J.Y.Y.Y.Y.Q.U.m.!.v.b.E.Y.T.J.",
"g.Q.^.oX/.B.B.B.W.f j zXnXmX5X>.` L L I , 9 &.&.K U u - r @.*.&.7.P , W 2.,.0.7X6X8X0.;.%.k c ].G.Y.U.U.U.U.g.v.!.v.v.U.v.(.h.",
"(.Y.Q.XX#XZ.B.D.Z.N j fXjXeX5X,.L L Y o.r r +.1.Y ` ) , - u Q o.Q E Q 4.1X1X1X,X%X<.;.1. .x Z ~.v.v.Y.I.v.v.!.k.m.v.v.v.U.U.g.",
"U.U.J.k.#X#XD.pX Xi.k >X4X9X9X-.U U o.#.u , ) -.-.9.3.^ , : 0 q - J 5.6X2X2X-X:.( -.1...x V.].F.T.v.U.v.v.`.oX~.j.v.s.v.v.s.(.",
"I.I.T.Q.z.Z.pXi.i.C.5  .-XqX9X( L ) o.r 9 q ^ 8XlX0X*X<X:._ 9 = X 8 o.9.6.:.4.[ -.&...n V.J.J.J.T.U.U.v.v.}.OX XN.x.}.N.g.J.J.",
"Y.Y.T.U.p.A z.u.k.P.d 3 =.jX1X,.Y 7.| - - I 6.gXmXcXrX9XwX-X] y r 1 0 L ` ` ) &.*.} n C.z.T.Y.U.Y.Y.f.U.m.s.Z.@XD.#X+X}.v.G.J.",
"v.v.v.U.k.B a.c.U.U.{.c $.dX0X>.-.9.+., , ) 3XwXtXcXuXtXtX1X4X4X8.W = 9 I L I P b n H l._.I.c.I.U.U.c.U.v.s.n.N.@X#Xm.v.v.k.L.",
"c.U.U.v.!.!.I.U.c.I.f.l.N $.fX0X3XsX7.I 0 q / 6.<XqXmXMXhX5X5X,X6./ y 9 9 q r O x C.l.!.v._.a.U.v.U.U.v.v.~.m.B s.s.u.v.v.m.z.",
"I.I.T.Y.G.Y.I.Y.U.T.Y.g.i.A.$XiX=.9.q.7.K : u Q [ 3.:XlXgX8X0.,./ 7.@.6 O & + * F J.J.J.j.m.m.U.v.v.v.T.g.G.!.h.B h.v.m.m.~.G.",
"E.E.Y.(.G.(.Y.T.Y.g.U.R.v.j.A.h 3 ! aXsX$.t 7 4 e J J L ;.<X;.` 2.&. .5 G F F F `.f.(.W.(.h.^.v.v.!.Y.v.T.Y.J.!.G.!.U.v.F.J.G.",
"!.Q.G.Q.W.T.g.Y.U.v.g.g._.Y.B.i.M m N N N i % z X - 0 J ' 4.5.2.+.W h G l.).g.W.s.Y.H.'.T.T.v.b.v.T.I.Y.T.U.W.G.Y.v.v.R.G.H.).",
"p.Q.G.Y.J.Y.Y.U.v.U.W.g.Y.E.v.^.!.V.[.V.C.[.[.[.v 3 } ..%.%.%.%. .6 S G.g.Y.Y.U.b.v.T.T.H.E.U.v.R.F.H.R.I.Y.Q.v.g.U.v.U.(.H.'.",
"p.Q.(.Y.Y.T.G.Y.Y.Y.!.Y.Y.T.Y.Y.Y.!.J.J.K.J.!.K.V.S m N m m v h a Z k.!.!.m.g.U.v.c.U.U.I.T.I.I.U.Y.Y.Y.U.Y.Y.Y.v.Y.W.Y.G.Y.(.",
"f.U.W.I.Y.Y.H.(.Y.Y.Y.Y.Y.I.I.Y.Y.v.Y.Y.Y.Y.G.!.!.k.!.~.l.l.K.l.J.~.!.U.g.p.p.m.U.c.U.I.Y.W.Y.Y.Y.v.U.v.Y.Y.Y.v.g.Y.Q.Y.J.G.g.",
"Y.Y.Y.Y.!.Y.U.Y.Y.Y.Y.Y.Y.G.Y.Y.Y.Y.Y.Y.W.T.Y.!.g.Y.m.J.k.k.k.J.k.(.Q.f.f.p.D t.Y.I.Y.Y.J.Y.Y.Y.U.U.v.U.G.Y.Y.Y.Y.Y.Y.Y.U.Y.g.",
"U.Y.Y.Y.Y.Y.!.Y.Y.J.Y.!.W.Y.Y.W.!.J.J.Y.G.G.Y.Y.U.!.Y.v.Q.Q.J.~.G.G.Y.Y.g.t.t.v.Y.U.Y.Y.!.J.Y.Y.v.Y.Y.v.Y.Y.Y.Y.Y.Y.Y.Y.!.!.Y.",
"W.!.Y.!.Y.Y.!.Y.Y.Y.!.Y.Y.Y.Y.Y.J.W.W.Y.(.Y.W.Y.I.Y.I.c.U.U.Y.Y.!.v.U.U.Y.f.H.Q.Y.T.Y.Y.g.!.Y.Y.g.!.Y.Y.Y.Y.Y.Y.Y.U.Y.Y.Y.G.Y.",
"!.Y.Y.Y.!.Y.Y.!.G.m.Y.Y.Y.!.Y.!.Y.G.Y.Y.Y.I.Y.T.U.T.T.U.Y.G.I.Y.s.v.v.v.Y.Q.Q.g.I.T.Y.Y.!.J.m.m.!.Y.Y.Y.Y.Y.Y.Y.Y.I.Y.Y.(.W.Y.",
"g.Y.Y.Y.Y.Y.g.U.Y.Y.Y.Y.G.Y.Y.Y.Y.Y.U.c.v.U.Y.I.f.Y.T.U.F.Y.(.Y.|.N.s.b.b.g.G.U.Y.Y.Y.!.Y.v.v.v.Y.Y.Y.Y.Y.Y.Y.I.Y.Y.Y.(.Y.(.W.",
"f.Q.Y.Y.Y.Y.Y.U.Y.Y.Y.Y.Y.!.Y.Y.I.Y.U.I.v.b.v.Y.U.Y.Y.U.H.Y.W.s.+X|.M.m.s.v.Y.Y.I.Y.Y.Y.Y.Y.Y.!.!.Y.Y.Y.Y.v.U.Y.(.I.G.I.G.G.G.",
"Q.F.(.Y.U.c.Y.U.c.Y.U.v.Y.Y.!.G.U.Y.v.a._.}.b.v.!.Y.Y.Y.Y.Y.G.v.XX#XS.B././.v.v.I.Y.Y.I.Y.Y.U.Y.Y.G.!.Q.Y.g.Y.U.Y.U.Y.U.G.T.H.",
"Y.g.U.Y.U.T.U.I.U.I.Y.I.G.Y.Y.v.v.g.^.v.}.|.x.g.v.!.Y.G.Y.Y.Y.v.S.@XB.n.+X|.s.^.v.Y.T.Y.T.I.I.W.!.Y.Y.Y.Y.Y.T.Y.T.U.Y.I.Y.G.G.",
"Q.Q.v.F.U.g.U.U.U.Y.Y.Y.Y.Y.Y.Y.~.m.m.g.|.|.N.`.g.!.Q.G.Y.Y.U.v.i.i.i.OX|.x.v.s.Y.Y.Y.T.Y.T.G.T.!.G.Y.!.Y.Y.T.Y.Y.Y.Y.G.G.L.~.",
"!.Q.g.Y.Y.F.Y.Y.Y.Y.Y.Y.Y.Y.W.W.G.k.k.n.|. X/.XXk.!.W.W.Y.U.v.v.N.A i.{.u.u.!.U.!.Y.Y.U.I.Y.T.W.!.Y.!.Y.Y.W.T.I.Y.T.(.G.J.G.(.",
"D Y.G.L.W.Y.T.G.Y.Y.G.T.G.G.J.L.J.W.k.m./.{.{.OXg.k.G.W.Y.Y.v.v.s.{.h.g z.~.a.^.!.J.J.Y.Y.Y.J.J.J.Y.W.Y.Y.Y.(.Y.(.Y.(.G.J.J.J.",
"h.J.J.J.L.Y.G.G.G.G.(.J.J.J.J.G.(.(.m.g.g.m.m.|.g.g.J.J.G.G.G.v.!.h.k.k.k.v.`.f.G.g.!.W.(.G.J.J.J.g.Y.Y.G.Y.Y.T.T.G.G.G.J.J.K.",
"L.(.J.J.G.J.h.T.J.G.G.G.L.(.J.h.F.F.I.Y.m.x.s.s.g.J.L.J.J.L.J.h.J.L.L.).G.d.I.(.g.J.J.J.H.G.J.K.W.g.g.Y.T.Y.Y.Y.G.F.G.J.J.L.J."
};
