/* XPM */
static char *db9fba66ff774919ce3e31ff29401d2bwNZkSLQ90nh4gpZG[] = {
/* columns rows colors chars-per-pixel */
"63 63 229 2 ",
"   c #313C1B",
".  c #313817",
"X  c #25381C",
"o  c #3F2E24",
"O  c #2E3E25",
"+  c #3B3B26",
"@  c #393A27",
"#  c #412F23",
"$  c #423226",
"%  c #4B3724",
"&  c #4D3926",
"*  c #45362C",
"=  c #4A362D",
"-  c #453C2C",
";  c #4B3B2C",
":  c #433B24",
">  c #533828",
",  c #433D31",
"<  c #4C3D33",
"1  c #4A3C37",
"2  c #513E34",
"3  c #314026",
"4  c #36442C",
"5  c #39442D",
"6  c #38482B",
"7  c #3C4531",
"8  c #3D4C33",
"9  c #395436",
"0  c #44402E",
"q  c #414B2B",
"w  c #454330",
"e  c #4B4235",
"r  c #424A34",
"t  c #4E433B",
"y  c #464F39",
"u  c #4D4A3C",
"i  c #494A38",
"p  c #52453D",
"a  c #524C3D",
"s  c #59473D",
"d  c #45543A",
"f  c #4A553D",
"g  c #44563A",
"h  c #52523D",
"j  c #387640",
"k  c #544742",
"l  c #544B42",
"z  c #5B4D44",
"x  c #5C4F49",
"c  c #574C48",
"v  c #4C5E45",
"b  c #4D5142",
"n  c #545344",
"m  c #5B5346",
"M  c #525943",
"N  c #595B47",
"B  c #575448",
"V  c #5D544A",
"C  c #5C5B4B",
"Z  c #5E5550",
"A  c #4F4745",
"S  c #604F45",
"D  c #615246",
"F  c #62544B",
"G  c #635A4D",
"H  c #67584A",
"J  c #625751",
"K  c #645C53",
"L  c #6A5D54",
"P  c #665E59",
"I  c #695F5A",
"U  c #715F59",
"Y  c #4B6246",
"T  c #4D6349",
"R  c #476647",
"E  c #54654B",
"W  c #5B624D",
"Q  c #556A4E",
"!  c #5A6A4E",
"~  c #457B4A",
"^  c #5D6553",
"/  c #566A53",
"(  c #5A6D53",
")  c #5C6E5A",
"_  c #566957",
"`  c #437E54",
"'  c #5A7155",
"]  c #5D755B",
"[  c #5E7A5B",
"{  c #557759",
"}  c #64624D",
"|  c #6C644E",
" . c #656355",
".. c #6A6255",
"X. c #65645A",
"o. c #6B645B",
"O. c #656A5C",
"+. c #6C695D",
"@. c #6C6B57",
"#. c #71645C",
"$. c #736A5D",
"%. c #766759",
"&. c #63765B",
"*. c #637B5E",
"=. c #667658",
"-. c #5B7760",
";. c #666661",
":. c #6C6461",
">. c #6C6A62",
",. c #716562",
"<. c #746B62",
"1. c #7B6D63",
"2. c #6C7461",
"3. c #6C7A63",
"4. c #677E64",
"5. c #757466",
"6. c #7B7364",
"7. c #75756C",
"8. c #7B736A",
"9. c #757D69",
"0. c #837E74",
"q. c #827F7A",
"w. c #807265",
"e. c #3D8354",
"r. c #3F835A",
"t. c #3F8851",
"y. c #45844C",
"u. c #48884B",
"i. c #508F49",
"p. c #50914E",
"a. c #428455",
"s. c #448A55",
"d. c #4B8C55",
"f. c #42855A",
"g. c #4C865D",
"h. c #468B5C",
"j. c #4B8D5C",
"k. c #4B8751",
"l. c #528D55",
"z. c #53855C",
"x. c #5C845C",
"c. c #548C5D",
"v. c #588A5B",
"b. c #4C9255",
"n. c #46915D",
"m. c #4C925D",
"M. c #519155",
"N. c #52945C",
"B. c #5A925E",
"V. c #599B5C",
"C. c #61845E",
"Z. c #609D58",
"A. c #5AA15F",
"S. c #4C8D62",
"D. c #478C60",
"F. c #578663",
"G. c #5C8563",
"H. c #538D64",
"J. c #5C8B65",
"K. c #548E69",
"L. c #5D8C69",
"P. c #5F8669",
"I. c #469462",
"U. c #4D9263",
"Y. c #4D9865",
"T. c #4D9469",
"R. c #4C986A",
"E. c #509562",
"W. c #509264",
"Q. c #509266",
"!. c #509465",
"~. c #519566",
"^. c #529364",
"/. c #5B9365",
"(. c #559963",
"). c #5B9C63",
"_. c #539469",
"`. c #5B946A",
"'. c #53996A",
"]. c #5B9E6A",
"[. c #5D9571",
"{. c #628563",
"}. c #6A8465",
"|. c #628A65",
" X c #638B69",
".X c #6A8D6B",
"XX c #6B866A",
"oX c #639265",
"OX c #63926A",
"+X c #699D6A",
"@X c #679867",
"#X c #749B6E",
"$X c #719768",
"%X c #7D8373",
"&X c #7D8973",
"*X c #7A8876",
"=X c #679970",
"-X c #799F70",
";X c #7B836E",
":X c #5EA365",
">X c #5DA16A",
",X c #57A068",
"<X c #63A36B",
"1X c #6CA46C",
"2X c #6BAB6E",
"3X c #65A768",
"4X c #6DB06D",
"5X c #75B46B",
"6X c #65A973",
"7X c #6BAD74",
"8X c #6AA874",
"9X c #78A97B",
"0X c #71B273",
"qX c #73B37A",
"wX c #7AB87C",
"eX c #6DB178",
"rX c #838274",
"tX c #838A76",
"yX c #89837A",
"uX c #858C7B",
"iX c #8B8C7D",
"pX c #868679",
"aX c #918D7F",
"sX c #8C917D",
"dX c #8D8C81",
"fX c #898480",
"gX c #918C82",
"hX c #8C9382",
"jX c #969385",
/* pixels */
"'.j.a.h.^.(.U.^.m.U.W.!.U.j.f.a.U.N.^.m.j.S.U.U.a.].a.f.a.U.T.'.f.U.!.d.s.j.N.U.N.m.U.m.(.U.I.h.a.h.S.!.!.^.n.s.U.U.!.j.g.` z.",
"m.U.m.W.^.m.m.U.W.S.W.W.!.U.U.U.W.m.U.U.I.T.S.e.f.a.Q.!.!.U.I.U.U.U.Q.m.m.T.W.N.m.m.m.Y.U.U.W.j.W.W.H.U.U.U.U.U.I.I.!.Q.Q.F.J.",
"a.I.~.U.S.I.U.U.Q.U.U.S.U.T.Q.!.U.U.U.Y.T.T.D.e.a.a.^.(.U.T.T.U.!.U.S.U.T.U.I.I.U.U.Y.I.I.U.^.!.!.U.Q.U.U.U.U.Y.U.U.T.~.H.H.K.",
"h.I.U.I.U.Y.U.U.U.U.T.T.U.U.U.S.m.U.U.T.U.U.S.j.a._.d.m.j.T.U.U.m.I.I.Y.T.I.I.U.T.U.Y.U.U.U.U.U.U.U.U.U.U.U.I.m.U.U.I.T.S.Q.S.",
"~.Y.U.S.U.U.U.U.S.U.Q.Q.U.Q.U.U.U.S.T.T.D.U.!.Q.H.~.N.N.~.S.j.U.m.U.Y.U.U.U.Y.T.Q.S.U.T.U.U.U.m.U.U.U.U.Q.Q.Q.U.U.U.U.~.T.K.S.",
"Y.U.U.U.!.U.S.T.U.U.U.U.U.Q.Q.W.Y.U.U.Y.U.U.Q.U.N.l.N.M.l.<XN.m.N.U.U.S.S.!.T.U.T.T.U.U.U.Q.U.U.U.T.U.U.S.U.Q.Q.H.U.S.T.U.Q.H.",
"S.U.U.m.!.S.U.Q.U.W.U.H.H.U.W.W.W.S.U.U.U.T.U.j.N.j.v.M.V.0XN.N.W.U.S.U.T.U.Y.m.I.m.S.U.Q.U.U.Q.I.U.W.^.W.U.U.j.U.U.U.U.S.S.S.",
"^.U.U.m.Y.U.U.U.U.U.W.U.U.Q.W.U.U.I.U.U.I.S.U.N.N.B.M.M.wX2XN.m.U.U.U.W.U.N.b.N.N.U.N.W.U.U.U.U.T.U.U.S.U.W.Q.!.W.U.U.S.Y.S.!.",
"n.Y.n.U.Y.U.h.U.m.m.^.m.m.U.N.U.U.I.m.U.Y.I.^.b.V.0Xl.M.5X2XV.n.Q.U.U.m.m.N.b.b.:X4Xn.m.n.U.U.T.I.m.U.U.U.U.U.U.U.U.m.m.U.U.d.",
"N.Y.m.m.m.U.U.U.U.U.U.Y.U.^.U.U.U.I.m.I.I.U.m.m.).7X2Xj 7Xp.B.N.U.S.U.I.m.b.N.M.:X3XM.b.!.U.T.I.I.I.I.m.N.m.c.m.j.U.U.U.m.U.U.",
"U.j.^.U.j.U.W.!.W.W.U.U.U.U.H.U.^.m.U.T.W.W.m.W.j.~ wX3Xj N.b.d.U.U.Q.W.N.b.3XV.A.2Xd.b.m.U.S.S.U.U.W.W.^.W.H.Q.U.^.U.U.^.N.M.",
"/.c.H././.c.H.K.H.H.H.^.H.H.H.H.c.H./.H.c.H.F.H.K.z.~ ~ v.F.).c.H.`.H.c.B.l.1X1X@X2Xk./.c.`.K.`.H./.H.H.K.K.H.H.^.H.c.^.K.c.v.",
" X XG.G. X|.|.J.|.|.|.L.|.L. XL.|. XJ.J.L.L.{. X{.|.[ x.OX Xx. XJ.L.J.G. Xx.#X#Xv.C.C.C.|.F.L.F.|.J.|.J.{.J.L.J.G.J. XG.{.|..X",
"9 *.&.' ] ] ] ' ] ' ] ] ] ' ] ] ' *.T ] *.] -.] &.&.*.' &.] ] -.] ] ' ] [ ( 4.&.' =.&.C.T [ &.] ] &.] *.] &.] [ ] ] [ &.&.=.h ",
"+ hXhXuXuXuXuXsXuXuXuXuXdXuXuXuXuXsXW uXuXpXuXuXtXpXuXuX*XdXhX*XuXtXuXuXuXuXpXpXuXdXtXsXM sXtXuXuXuXuXpXuXuXuXuXuX*XtXuXiXiXh ",
"@ hX&X&XtXuXpXaXdXiXgXuXuXdXdXuXaXjXu jXdXdXiXaXaXgXdXgXdXdXdXdXsXiXaXgXyXaXgXgXgXgXgXjXa jXsXpXiXaXiXiXdXdXdXiXhX&XtX*XpXiXe ",
"j .X X=XOX.X&XrX0.yXpXpXrXrXrXrXrXrXM pX0.rXrX0.0.0.rXrX%X%X%X%X0.%XrXrX0.0.0.0.0.q.0.yXB pXrXrX&X&X%X%X0.0.0.%X&X&X.X|.XX#XY ",
"K.`.F.H.H. X' X.o.o.O.X.X.X.o.o.@.>., $...o.o...L o...X.X.X.X.^ X.X. . . .o.I I o.I o.#.u o. . . . .X.X.X.X.o. ./  X|.K.L.L.v.",
"L.K.K.H.S.G./  .<.+.>.>.>.>.+.#.$.1.t <.o.#.o.o.o.#.:.,.o.o.>.O.O.O.o.O.O.o.o.,.+.o.+.>.B +.o.o.o.o.o.+.o.o.:.X.' L.F.Q.H.S.Q.",
"U.K.S./.Q.L.) C <.o.O.>.>.;.>.o.o.$.p <.o.#.o.o.o.:.o.o.:.,.o.o.o.o.o.o.o.o.o.O.X.+.o.+.p $...#.#.#.o.o.#.o.:.) -.F.^.U.U.U.T.",
"D.U.Q.Q.Q.J.( M >.+.>.;.;.;.o.#.o.$.p $.o.+.+.@.O.X.o.;.o.:.U :.o.#.I U o.O.o.O.X.>.o.o.p +...#.:.:.O.o.o.o.;.O.{ F./.U.m.Y.T.",
"g.S._.j.j.K./ W X.+.;.;.;.;.O.o.o.#.t #...o.X. .o.P X.o.o.o.I I U I o.o.o.o.X.o.O.P I o.k o.L #.I :. .o.X.L o.;._ [.H.I.m.n.U.",
"'.U.j.U.].`.Q M L o.:.O.O.:.#.o.#.#.p #...X. . .X.X.X.X.X.o.:.o.X.o.o.X.o.X.o.X.#...o.#.p #.U U :.:.X.....o.P ;._ L.d.m.N.,XI.",
"j.(.j.>X8Xz./ C C I o.o.I o.o...o.#.s ....o...O.X.X.;.^ X.) X.X.X.X.X.X.X.X.X.o.J #.L %.* #.U I :.I  .}  .o.P ^ { G.).N.V.7Xg.",
"(.m.m.].8Xv.' M m K o...o.L L o...o.i  .} .... . . ... .X. . . .X. .X. . .^  .X. .L L o.+ +.X.Z P P  .} }  .o.X./ |.+X1X@X1XF.",
"m.m.m.>X6XoX=.m m H L L L L #.L @.o.- $...............@.o.o.o.o... . . . . . ...@.o.#.#.w X.O.o.:.o. ...| | o. .) {.@X1XZ.+XOX",
"s.m.m.(.@X@X! h a m V V V V F m V F e D G D D D D G m N V N m m m G G m G C G D H s H S 1 K c F F F S D D D m N Y C.+X3Xl.k.c.",
"t.m.m.N.N.B.E 0 ; < t e e e < < < < z * - 0 ,   h f h f f f f b y f f f f f y 0 * < 2 < J = = = 1 = < = > ; , , 8 x.v.N.N.N.j.",
"s.W.m.^.m.|.! h m D F V F V F D F z H m W d 6 [ |.J.H.^.H.W.H.J.J.K. XK.H.L.J.[ 4 r m G z D L H F F N m H H D N Y  Xc.d.^.S.S.",
"I.Y.m.!.m.H.! h z z V V V V S z S S m N 6 Q { l.^.N.^.Y.U.U.U.I.^.Q.U.m.U.W.^.F.x.&.@ N G D s H F F m V m D m M R F./.^.S.S.K.",
"Y.U.j.U.S.J.Q n c m V V V V V m D D m y Y C.OX^.m.m.m.n.m.U.U.U.U.m.I.n.m.I.U.W.F.{.[ 6 h m V m m D V B V V m M T F.K.Q.Q.S.S.",
"R.U.I.U.U./.Q m B x c x B c z m D a W X |.J.j.m.U.U.I.n.m.m.W.m.m.m.Y.Y.Y.n.I.I.Q.c.G.g M M m m m m V M V m N M v L./.D.T._.S.",
"f.~.S.U.!.K.! V V c V K J Z L P L C 8 [ H.H.Q.S.Y.S.R.n.^.U.m.U.m.m.U.U.I.T.I.U.S.Q./.{ 6 ..G } } C K  .G K C W / G.^.S.S._.K.",
"T.T.Q.m.j.H.Q u k z z V F L J J J @.O {.j.U.Y.I.S.~.h.Y.j.I.Y.I.U.m.U.U.U.T.U.U.Q.U.U.K.4 ..} C K  .G J V X.G N Y G.`.!.H.D.K.",
"'.m.^.N.^./.E u k z p , V G J J k b ' C./.m.s.'.U.'.S.U.U.U.R.T.m.m.m.U.S.U.U.U.Q.S.Y.F.=.a , m F J S p z F l i f {.F.!.H.S.[.",
"f.^.m.n.N.K.E N V J V * o.o.,.:.<.5.6 |.c.U.T.S.Q.S.Y.U.U.U.S.I.I.U.U.U.T.U.U.U.U.!.j.L.4 <.<.#.,.,.#.k #.o.,.../  XH.Q.H.S.L.",
"e._.^.b.d.H.Q V V F F - $...I o.K X.d {./.I.'.~.D.f.U.U.U.U.S.T.U.U.U.U.T.U.U.W.U.U.U.J.5 o.J L Z P I 1 o.Z .. .) {.K.S.S.H.H.",
"j.^.(.<X].v.! n z F F t ....J o.o.2.8 |.H.D.U.h.` f.e.Y.U.S.T.I.S.U.K.U.T.S.m.m.W.d.^.J.4 #.I P P o.:.c o.K K ^ Q G.^.I.Q.Q.H.",
"~.j.^.0XeX@X! h V V F t V ..L o.L 2.6 |.c.I.!.S.f.f.r.Q.j.S.~.T.T.U.S.Q.U.U.j.N.N.d.W.J.4 o.I K K X.I c P X. . ./ J.Q.T.!.S.S.",
"~.N.M.N.7X9X' m z x G t G o.o.P o.+.r |.c.U.U.T.S.f.T.U.U.U.U.U.T.T.T.S.U.m.m.m.(.].N.H.r o.I I P  .I t o.J ..W Q |.j.d.Y.S._.",
"W.W.N.M.W.+X=.n z V z l V G K X.K  .9 |.j.U.U.S.Q.Q.Q.m.U.H.I.T.U.I.!.N.U.s.>XN.:X7Xd.H.y L ..J  .L L < J F K N E  X=X].j.Q.H.",
"W.m.N.m.y.~ Y a p k p t p B V Z k u ! |./.m.j.~.S.Q.m.m.N.m.U.U.U.U.W.m.U.b.6X>X:X>XN.v.=.a p J J J F 2 z z m M d 9XqX>Xc.l.c.",
"m.j.N.N.s.` v m V F F J C L o.:.o.+.3 |.g.m.Y.U.S._.m.n.N.^.j.T.U.U.U.m.m.m.6X2X(.6Xb.oXO 6.$.o.+.<.#.#.#.o.o.@.&.9Xc.d.N.W.c.",
"Q.W.W.N.N.H./ B V V F C V F I P o.+.3  XN.^.U.S.Q.S.m.N.m.n.(.m.U.m.U.m.N.n.,X,Xd.d.n.H.r @.L K K J L o.K L  .} ' [ a.N.W.W.H.",
"U.U.U.U.m.H.( B V x V J V Z P X.o. .7 x.l.m.U.'.S.N.j.N.).N.d.U.I.U.W.U.U.n.N.m.m.,X^.z.6 $.G ..;.X.X.X.K K  .^ T { U.'.h.S.S.",
"T.U.m.m.U.H./ m x x V J Z V K P X.>.O  XH.U.m.S.U.W.(.m.7XV.U.U.U.m.W.U.W.U.U.m.m.d.U.`.4 $.K  .^ Z P J  . . ./ ' J.!.U.D.Q.S.",
"R.~.S.U.U.H._ b Z x V Z Z V J I J +.5 {.c.U.Y.!.!.m.b.qXN.8XV.m.U.U.U.U.I.U.U.W.!.!.S.J.6 $.J o.P P I P o.o.L Z / G.^.U.~.H.K.",
"f.I.U.m.S.H._ B c x x V V V Z P P O.6 C.N.Y.d.m.U.m.U.m.7X^.n.m.m.U.Q.S.I.T.S.U.I.Y.U.J.8 $.K K K L L P P J K ^ ^  XK.Q.K.D.[.",
"s.U.m.m.U.J.Y i p 1 2 * 1 t k V r b W {.H.N.j.Y.T.U.U.U.U.I.m.U.m.U.U.Y.S.S.U.R.I.I.Y.J.2.u < z G D S s z V F B v P.S.T.S.H.`.",
"t.m.m.U.Y.K./ m F F F * J F F J O.O.y }.v.^.U.j.I.T.I.T.U.I.U.m.U.I.S.Q.K.f.e.I.I.R.W.G.8 5.,.<.$.$.1.p 1.o.<.+.) .XK.R.T.S.g.",
"U.T.Y.T.S.K./ c z x x * J Z x x Z 2.4 XX^.U.U.m.I.S.Q.Q.U.U.U.I.I.I.'.U.a.a.s.e.(.s./.L.4 $.o.o. .>.,.k :.:.o.O.) P.S.S.S.Q.c.",
"R.I.S.T.T.K./ b c c J k x V F V C >.8 XX^.n.U.Y.T.S.K.Q.K.U.U.U.T.R.U.S.c.e.e.U.n.^.m.L.5 <.O.o.>.o.,.A :.:.:.) )  X^.I.j.!.^.",
"~.T.S.T.T.P._ c z z z p x V F V V @.q }.^.n.Y.I.U.Q.K.K.U.T.U.U.R.h.T./.S.j.S.m.H.^.d.J.r <.o.+.>.;.:.A :.:.;.;.{ F.Q.R.I.Y.U.",
"Q.Q.Q.Q.S.K./ n z D S * F S F S V >.@ }.H.m.Y.h.U.K.K.H.H.U.U.Y.n.N.W.j.^.`.I.Y.^.S._.J.r $. .o.;.,.,.t :.>.;.;.] J.D.U.U.m.m.",
"h.S.S.U.U.J.W a S S S * H S S S F  .5 }.j.b.Y.m.U.H.K.H.U.U.U.m.:XM.l.B.W.S.I.U.S.~.~.L.+ 6...@.K ..1.2 1.L @.X./  XH.U.U.j.H.",
"j.W.W.j.Q.J.f @ $ # * o = $ $ * $ + : *.v.N.n.m.U.U.U.T.U.U.m.m.5X3XV.l.l.S.U.R.T.T.S.G.r ; & 0 ; ; > & = ; , 5 8 {.W.U.m.W.H.",
"N.m.^.m.U.K.( } L L L H L L L L L G |   oX1Xl.m.U.m.U.U.U.U.U.b.5X5XZ.p.).).m.I.T.U.K.9 ;X$.w.1.6.6.6.w.6.6.5.5.*. XS.I.U.~.D.",
"m.m.U.m.U.K.( C } L L L P P K L L H | q -X1Xk.N.m.m.U.U.I.U.n.n.V.5Xp.p.9X3Xm.R.n.Y.H.9 9.8.6.8.5.5.6.6.7.7.7.3.}.J.T.U.T.T.S.",
"R.T.U.U.I.K.] ^  .L X.P P P I I H | |   $X1XB.].n.n.Y.I.I.U.U.m.p.i.p.0X3Xl.N.d.N.^.J.6 9.8.8.7.7.7.7.8.7.7.7.7.4.G.H.Q.K.S.S.",
"I.T.I.U.I.K.-.^ +.+.:.,.>.:.,.,.$.%.%.. -X+XV.7Xm.m.Y.U.I.U.U.S.N.y.b.@Xy.y.N.N.m.c.J.9 rXyXq.fX*X%Xq.pXfX8.q.%XXX XK.Q.K.H.L.",
"f.R.Q._.T.K./ n V V V G V F F F m H H   $X3X).7Xn.m.U.U.U.U.Q.H.j.).a.j c.^.d.^.N.c.oX9 } G K o.;.P X.I o.X. .^ ) P.S.Q./.S.H.",
"` S.D.K.K.K.Q a N G H H H G L H L H }   v.k.].:Xd.m.S.F.K.S.S.S.H.j.F.S.H.c.].h.N.z.v.g @.@.$.K o.X.U L o.I  . .^  XH.j.D.H./.",
"`.[.J.H.g.G.f : % % % % & & & & % : - =.oXN.s.m.j.H.H.K.H.K.Q.D.K.L.K.[.S.f.U.R.j.L.H.*.; & ; < & > > > > & & - 7 C.c.!.S.K.g."
};
