/* XPM */
static char *_bb6aaa5ab114c069668d2ed68380a59zy1ZSKAPoEFYFh7z[] = {
/* columns rows colors chars-per-pixel */
"74 69 4 1 ",
"  c None",
". c #3E734E",
"X c #7AB055",
"o c #4D9262",
/* pixels */
"                                                                          ",
"                 .                               .                        ",
"               ...                             ...                        ",
"               .oo.       .   .       .        .oo.       .   .           ",
"        ..  ...oooo..   ..o. .o..   ... ..  ...oooo..   ..o. .o..         ",
"       .oo..ooooooooo...oooo.oooo...ooo.oo..ooooooooo...oooo.oooo...      ",
"       .ooooooooooooooooooooooo.ooooooooooooooooooooooooooooooooooo.      ",
"        .ooooooooooooooooooooo.o.oooooooooooooooooooooooooooooooooo.      ",
"        .oooooooooooooooooooooo.oooooooooooooooooooooooooooooooooooo.     ",
"       .oooooooooooooooooooooooooooooooooooooooooooooooooooooooooooo.     ",
"       .ooooooooooooooooooooooooooooooooooooooooooooooooooooooooooooo.    ",
"       .ooooooooooooooooooooooooooooXooooooooooooooooooooooooooooooo.     ",
"     ..ooooooooooooooooooooooooooooXXoooooooooooooooooooooooooooooo.      ",
"     .ooooooooooooooooooooooooooXooXXooooooooooXoooooooooooooooooooo.     ",
"    ..ooooooooooooooooooooooooooXX.XoooooooooooXooooooooooooooooooooo.    ",
"      .ooooooooooooooooooooooooo.XX.oooooooooXoXoooooooooooooooooooo.     ",
"       .ooooooooooooooooooooooooo..ooooooooooXoXoooooooooooooooooooo.     ",
"       .oooooooooooooooooooooooooooooooooooooXooooooooooooooooooooo.      ",
"        .oooooooooooooooooooooooooooooooooooooooooooooooooooooooooo.      ",
"        .oooooooooooooooooooooooooooooooooooooooooooooooooooooooooo.      ",
"        .ooooooooooooooooooooooooooooooooooo.ooooooooooooooooooooooo.     ",
"       .ooooooooooooooooooooooooooooooooooo.o.oooooooooooooooooooooo.     ",
"       .oooooooooooooooooooooooooooooooooooo.oooooooooooooooooooooooo.    ",
"      .ooooooooooooooooooooooooooooooooooooooooooooooooooooooooooooooo..  ",
"       .oooooooooooooooooooooooooooooooooooooooooooooooooooooooooooooo.   ",
"        .ooooooooooooooooooooooooooooooXooooooooooooooooooooooooooooo..   ",
"       .oooooooooooooooooooooooooooooooXXooooooooooooooooooooooooooo.     ",
"      .oooooXoooooooooooooooXooooooooooXXooXooooooooooooooooooooooXo.     ",
"       .ooooXoooooooooooooooXoooooooooooX.XXooooooooooooooooooooXoXo.     ",
"       .ooooXoXoooooooooooooXoXooooooooo.XX.ooooooooooooooooooooXoX.      ",
"        .oooXoXoooooooooooooXoXoooooooooo..oooooooooooooooooooooXoo.      ",
"        .oooooXoooooooooooooooXooooooooooooooooooooooooooooooooooooo.     ",
"        .ooooooooooooooooooooooooooooooooooooooooooooooooooooooooooo.     ",
"       .ooooooooooooooooooooooooooooooooooooooooooooooooooooooooooo.      ",
"       .ooooooooooooooXoooooooooooooooooooooooooooooooXooooooooooooo..    ",
"      ..oooooooooooooXoXoooooooooooooooooooooooooooooXoXoooooooooooo.     ",
"        .oooooooooooooXoooooooooooooooooooooooooooooooXooooooooooooo.     ",
"       .ooooooooooooooooooooooooooooooooooooooooooooooooooooooooooo.      ",
"       .ooooooooooooooooooooooooooooooooooooooooooooooooooooooooooo.      ",
"        .oooooooooooooooooooooooooooooooooooooooooooooooooooooooooo.      ",
"        .ooooooooooooooooooooooo.ooooooooooooooooooooooooooooooooooo.     ",
"       .oooXXoooooooooooooooooo.o.oooooooooooooooooooooooooooooooooo.     ",
"       .ooooXXoXXooooooooooooooo.oooooooooooooooooooooooooooooooooooo.    ",
"       .oooooXXXoooooooooooooooooooooooooooooooXoooooooooooXXooooooo.     ",
"     ..oooooo.X.oooooooooooooooooooooooooooooXoXooooooooooooXXoXXoo.      ",
"     .ooooooo..ooooooooooooooooooooooooooooooXoXoooooooooooooXXXoooo.     ",
"    ..oooooooooooooooooooooooooooooooooooooooXooooooooooooooo.X.ooooo.    ",
"      .oooooooooooooooooooooooooooooooooooooooooooooooooooooo..ooooo.     ",
"       .oooooooooooooooooooooooooooXoooooooooooooooooooooooooooooooo.     ",
"       .ooooooooooooooooooooooooooXoXoooooooooooooooooooooooooooooo.      ",
"        .ooooooooooooooooooooooooooXooooooooooooooooooooooooooooooo.      ",
"        .oooooooooooooooooooooooooooooooooooooooooooooooooooooooooo.      ",
"        .ooooooooooooooooooooooooooooooooooo.ooooooooooooooooooooooo.     ",
"       .ooooooooooooooooooooooooooooooooooo.o.oooooooooooooooooooooo.     ",
"       .oooooooooooooooooooooooooooooooooooo.oooooooooooooooooooooooo.    ",
"      .ooooooooooooooooooooooooooooooooooooooooooooooooooooooooooooooo..  ",
"       .oooooooooooooooooooooooooooooooooooooooooooooooooooooooooooooo.   ",
"        .ooooooooooooooooooooooooooooooXooooooooooooooooooooooooooooo..   ",
"       .oooooooooooooooooooooooooooooooXXooooooooooooooooooooooooooo.     ",
"      .oooooooooooooooooooooXooooooooooXXooXoooooooooooooooooooooooo.     ",
"       .ooooooooooooooooooooXoooooooooooX.XXoooooooooooooooooooooooo.     ",
"       .ooooooooooooooooooooXoXooooooooo.XX.ooooooooooooooooooooooo.      ",
"        .oooooooooooooooooooXoXoooooooooo..oooooooooooooooooooooooo.      ",
"        .oooooooooooooooooooooXooooooooooooooooooooooooooooooooooooo.     ",
"        ...oooo.oooo...ooooooooo..oo.ooo...oooo.oooo...ooooooooo..oo.     ",
"           ..o. .o..   ..oooo...  .. ...   ..o. .o..   ..oooo...  ..      ",
"             .   .       .oo.        .       .   .       .oo.             ",
"                          ...                             ...             ",
"                          .                               .               "
};
