/* XPM */
static char *_828cbb4ee8f4273b782abb443df74be1qgXv8oDyLjdR1py[] = {
/* columns rows colors chars-per-pixel */
"63 63 148 2 ",
"   c #376F3E",
".  c #32733D",
"X  c #3B7B3D",
"o  c #357445",
"O  c #3B7A42",
"+  c #3F7F49",
"@  c #437F43",
"#  c #437F54",
"$  c #3F834F",
"%  c #3E8356",
"&  c #3E8658",
"*  c #42844C",
"=  c #4B8C4D",
"-  c #508E4D",
";  c #52904D",
":  c #428355",
">  c #4B8553",
",  c #458A55",
"<  c #4B8D55",
"1  c #428559",
"2  c #4A865C",
"3  c #468B5D",
"4  c #4B8D5C",
"5  c #558F54",
"6  c #51855F",
"7  c #518C5C",
"8  c #4D9155",
"9  c #4D925D",
"0  c #529254",
"q  c #52945C",
"w  c #59965B",
"e  c #559A5E",
"r  c #5A9D5D",
"t  c #4B8761",
"y  c #468D61",
"u  c #4C8E62",
"i  c #528D64",
"p  c #5A8C67",
"a  c #558E69",
"s  c #5A8E6A",
"d  c #479160",
"f  c #4F9467",
"g  c #4E9465",
"h  c #4D9263",
"j  c #4A9368",
"k  c #4D9168",
"l  c #4C9369",
"z  c #4E9269",
"x  c #4F916B",
"c  c #4F9468",
"v  c #4E9668",
"b  c #4D9368",
"n  c #519061",
"m  c #509262",
"M  c #519461",
"N  c #519660",
"B  c #529562",
"V  c #529663",
"C  c #539663",
"Z  c #579661",
"A  c #549462",
"S  c #549762",
"D  c #519065",
"F  c #509264",
"G  c #519365",
"H  c #509166",
"J  c #529166",
"K  c #519267",
"L  c #539267",
"P  c #519564",
"I  c #509465",
"U  c #509664",
"Y  c #509566",
"T  c #519566",
"R  c #529466",
"E  c #519667",
"W  c #529667",
"Q  c #549666",
"!  c #519464",
"~  c #589762",
"^  c #599363",
"/  c #559960",
"(  c #579860",
")  c #529866",
"_  c #569964",
"`  c #559963",
"'  c #5A9C64",
"]  c #519268",
"[  c #529368",
"{  c #519468",
"}  c #509568",
"|  c #519469",
" . c #529569",
".. c #519669",
"X. c #50946B",
"o. c #529469",
"O. c #589768",
"+. c #5B926B",
"@. c #54996A",
"#. c #53996B",
"$. c #5A996E",
"%. c #5B9E6A",
"&. c #5A8F71",
"*. c #539770",
"=. c #5F9574",
"-. c #619E63",
";. c #639E70",
":. c #5BA061",
">. c #5DA261",
",. c #5EA364",
"<. c #5EA267",
"1. c #5CA265",
"2. c #5EA269",
"3. c #5FA46D",
"4. c #5EA26A",
"5. c #60A467",
"6. c #63A264",
"7. c #63A76E",
"8. c #62A36B",
"9. c #64A96A",
"0. c #66AA6D",
"q. c #66AB6C",
"w. c #64A96B",
"e. c #6DAF6F",
"r. c #6AAB6D",
"t. c #64A571",
"y. c #6BA771",
"u. c #69A571",
"i. c #66AA71",
"p. c #6CA970",
"a. c #69AD72",
"s. c #6CAE70",
"d. c #6EAE72",
"f. c #6AAC73",
"g. c #72AF75",
"h. c #70AF78",
"j. c #70AF7A",
"k. c #6FB376",
"l. c #6EB372",
"z. c #71B174",
"x. c #74B374",
"c. c #78B772",
"v. c #78B975",
"b. c #73B279",
"n. c #71B57B",
"m. c #78B87B",
"M. c #7BB87F",
"N. c #7BB97D",
/* pixels */
"@.4 & 3 Y Y h Y h h F Y h 3 : & h m Y m y k l h 1 $.1 2 : ..X.*.1 h Y 3 , 3 Y ! h h 9 h ) Y 9 1 1 3 h Y Y h 4 3 v d U 3 3 # 6 ",
"h h h h h h h h h 9 h h F h h h h 9 m h j j t % 2 : F [ F u u k h h g h h h ..h h h h h h h d h [ h F h h h d g g h U g i i p ",
"& h Y g h h h h h h h h F h Y ..h 9 h g g g 3 % : : q Q u ..l u g h h h g h h d h h g h h h h ! F [ h h u h g g h h h Y i i a ",
"3 u h 4 h ! h h h h h h h h h 4 9 h l j g d g 3 % ! < 9 u h h g 9 9 h g g h u l l h g g h 9 U h h d h F h h h h h h 4 Y i i t ",
"..Y h 4 h h h h h h h h h g h h h d g j d d v U 9 S 9 q ! 9 9 9 9 9 Y h d h l ..l h h h h h 9 h g d h h h h F Y h h u Y i o.u ",
"Y h h h h h h h h h h h h h m h g h j j j v v h m 4 0 8 8 3.9 9 h h h 9 l g [ h l u h h h h h h g h h h h m Y h h h h h F l i ",
"h h h h h h 4 Y h h m h h h m h g d g h d g h 9 9 0 8 q e l.q 9 9 h h 9 F F h h F h h Y Y h h h d j h F F F h 4 h h h h u u u ",
"Y h h h h h h h h h h h h h h h d g h h j d h 9 q q 9 q v.l.q 9 h h h h m h 9 9 ! q m 9 h h h v g g h h u m F Y h h h h l u [ ",
"h h h h u h h h h h h h h h h h h h h h l h 9 9 ( b.7 7 z.e.q 9 h d X.h 9 8 8 8 <.r.9 9 h l l u d d v h i h m h h h h F u ..t ",
"h u h h h h h h h h h h h h h h h m h h h u m q ~ h.p.O l.= w 4 l u F h 9 8 e 8 :.q.8 9 4 h h l j j h h h m m h F h h h u o.u ",
"h h h h h h h g h h h h h h h h h m u F F h i h 7 + M.p.O S 0 9 [ u h ! q 8 <.:.>.q.8 q h h k k j h h h F h h h h h h h h o.t ",
"Y ! h h h h h h h h 9 h h h h 9 9 h F h h m h F m > X O 2 4 _ < h l h h 9 8 q.9.:.<.9 q h h k l j h h h h h F h h h h Y F m i ",
"h h h h g h 9 h h h h h h h h h q h h h h h m m i A < 4 O.F 4 Y u l F h 4 4 7.2.9 e 9 9 h h h F h h F h h F h h u h h h h u i ",
"3 ! h u h h h h h h u h h h h h h 9 h h h h h h 9 q ~ , m 9 h h h l h h Y q _ S 8 h 4 h F h h l h l h h h h h h h h h h i 7 +.",
": h ! h h g h h h h h h h h h m h 9 h h d l d h h 4 h Y h g #.d v h F h Q 4 u i [ F m m F h h h i h h F h h h d h h h h F t +.",
"& h ) 9 h h h h h h h h h h h h U d 9 h h l l h h F u g d h d j d h [ u [ 1 1 X.i i F u h u h h h h F h h h h h h d h g o.t p ",
"d 9 U d h h h d d k l h g h h h 9 9 d d l l k u l h 9 h 9 9 h j h l [ u 3 1 & 1 u l u [ h l F h h q F l l l h 9 9 h v v k v t ",
"v U d 9 d h h g x l k l g h h 9 9 9 U v h h [ l h h h h h h 9 h [ F h k k + % u h h h h d g h F 9 m h u k h h h h g d d j g h ",
"U v h 9 h h h h l h h l g h ! 9 9 h U h u u h h h h h h d U d v 4 L Y h k 3 3 h h h h h h h g d 9 m h [ h h h h 9 9 h h d u F ",
"h g h h U 9 h h l h h h h h 9 9 g h d U h Y h u i l h l g d j 9 4 9 9 q h F F h u h h h h h h 9 q h h i h l h h h 9 h h h u ..",
"3 ..h h h 9 m 9 h h h h h 9 h h g d F m 9 q 9 h h h k h g j d h 1.0 < q 9 9 q h h h h h h 9 U U h h h h h h h h U 9 U 9 m 4 F ",
"y h 4 h 9 < q h 9 h h h h h 9 h l d Y 4 9 9 8 h F l i k g d h 9 e.9.0 0 9 < q 9 h h h h h h 9 d u h h 9 h h h h h 9 9 8 9 q 4 ",
"u F 4 @._ 4 9 9 9 h h m h h h h l F F 9 / e 8 q h u k k l h 9 9 e.v.r = ( ( q 9 9 h h h 9 h 9 U h g h 9 h h h h h 9 9 < ~ -.2 ",
"[ m 4 8.7.q 9 9 q m h h h u l h l u h 9 <.9.8 8 m F [ l h d h 8 6.c.0 0 d.8.2 h ! h h h h h 9 d h g h 9 h h h h h ! e q -.g.2 ",
"! 9 8 3.i.8 _ 9 9 9 h h [ u [ k l d U , >.9.8 e 9 4 F u l h 9 q = 6.= 6.n.4 m h [ F l d h h h h v ..h 8 h 9 d v h 4 7.r.( u.7 ",
"9 q 8 2.a./ a.9 h 9 m F u [ u l ..g 9 8 >.9.r r.9 9 h h h h 9 9 0 X 0 r., * Q u h l u [ Y h h Y 3 h Y 9 9 v l d h 9 %.8.^ 8.^ ",
", 9 8 _ 1.' n.8 m m F u l h h h u h 9 9 >.>.' a.9 9 h m h h 9 9 ( q * . > _ u ..l u h l h h 4 F F h 9 9 h h g d 9 h 1.%.q 7 i ",
"* 9 q q 9 9 i.9 h h F h u [ u h Y Y 9 8 9 8 e 7.9 4 9 h 9 U 9 9 , 9 w m m h h u h l l h u h h 9 Y 9 9 ! 9 h g g h 9 h 9 A 2 7 ",
"& 9 9 9 9 9 9 N h 9 h Y 4 #.< h 4 ! h e Y 9 9 9 9 9 h 9 h 9 d U F ..4 h Y h v g h h F h h ! ! 9 < 4 Y F 3 h g h U 4 9 9 L i i ",
"U h U 4 U 9 8 ) h Y h 4 Y < _ 8 h h h h 4 h Y 9 h 9 h U 9 v d j d u ....u g v d h h F h h m m 4 _ 9 < v v d 9 9 9 9 v h F 2 o.",
"v v d h h h h g h Y h < ' < 9.e m d h v l ..h d h h h 9 h j v d X.u u v g d 3 v h 9 h q q 4 q Q i./ < d U j 3 U h 9 h u i [ i ",
"U v h U h h Y y g 9 h q , i.e a.%.d d h u l l v g h U h d d g g d *.d j v d h h h 9 4 ! h 9 @.i.w 7.%.h d j U 9 h d v h l i 2 ",
"& h 9 9 S 9 3 g 9 h h 9 9 e 3.1.4 h h h h h h h F u ..4 h h u g d h h h h h h h u h h h 9 h h N y.( q g g d Y h h u d ..u o.6 ",
"h 9 U d 9 ! h 9 9 U d 9 9 9 _ 9 9 h h h h h h h u ..u g h h g h h h 9 h h h h h h h F h h 9 9 9 S q 9 h d d m u h l d h u i p ",
"#.u v g u ! h u j j d j h 9 h 9 4 h h h h h h h h ..3 Y h u h h d h d h h h m h h h F h g d d 9 h h g g d h g h 9 h g h [ t =.",
"y v d 9 h m m m g j j g g g h U h m h h h h h h g 9 ..h l h h l g d h h h h h m F h h h h d g g u [ d h v g h 9 q 9 9 h k t &.",
"% *.v 9 9 3 ! 9 h g g h d h h ..h h h h h h h h y 1 h u v h h u g d h h F h h h m h m h h h h l i l u h l h i w m 9 h U h h i ",
"3 g ) i.2.< q 7 9 h U h j l d h h h h h h h h u & 1 : l u h [ l h j l h F h 9 9 9 9 u h l h l u h h F g h u 7 7 A u 9 h u ..t ",
"U 9 / a.d.' 0 -.' 9 h h h g d h h h h h h h h h & & 1 ..u d X.h l l h h h 9 7 q q 9 9 h F h l h h 9 l d u h i i 7 7 9 h 9 h u ",
"9 9 8 8 d.b.-.N.8.9 9 9 9 h h v u h h h h 9 h 4 4 & h h j h [ u v h i h 9 9 9 9 _ S q h h i l h Y h h h 9 %.;.w q 0 8 9 h 8 Q ",
"9 9 9 0 0 -.N.0 0 q q 9 h 9 d h h h h h h h h h m h Y u m h h h h h g h 9 , ' e %.d.3 9 h h h h g l g h 9 4.b.r.0 e 3.e 9 h t ",
"9 9 9 q * . 5 * q q h h h h h d h h h h h h h h h h h h h h h h h h h 9 9 4 i.2.1.i.8 q 9 ! h g g g 3 h h 8 -.b.>.q.l.>.9 F o.",
"d h F m < @ > 4 9 h h h v d v g h h h h h h h h 4 Y 9 9 ! ! < ..h h 9 9 9 q i.i./ 1.9 9 8 h h h h g d 9 9 8 0 q v.q.q 9 9 h L ",
"g g F h F m i Q h h h h j j d g h h h h h h h h Y 4 h ! 4 9 ! 9 9 h U 9 9 9 %.1.9 q 9 9 3 h h h h h g h 9 h q O 8 8 % 8 9 9 t ",
"j j X.h u m u h [ d l l l l i h h h h h h h 9 h 9 m 9 9 _ m < 9 h h 9 9 9 8 N 9 9 8 9 ! 8 g h h 9 9 9 h u u ^ : o , ! 9 h ! 2 ",
"v d l ..h Y h F j j j d h h i h F h h h h h h h 9 9 / q f._ 9 ! h h h h h 9 h 9 h 9 Y Y h g h h 4 ! 9 h h h m L q F U 9 u i 7 ",
"h Y u h h h 4 h d l g d h h 9 q h h h h h h h q Y 9 8 n.! i.S 9 h j j 9 h h h ! h h h h g d d g u ..h d v g m 4 h 9 h ) u t s ",
": Y h h h h h v d g h h 9 q 9 9 9 h h h h h h h 9 8 h h f.q q 9 9 g v d h h 4 h h Y d h v d g g ..u j ..d u Y h 9 9 9 g k t ;.",
"& g ..d l h u v h l h h u h h h h h U h h h h 9 h 9 9 9 9 q m h g h d g h 4 m ! 9 d v h h h l h h h h h h h h h 9 h h h u m o.",
"3 g v d h h h l h h h l l h d h h 9 9 h h h h h h h h h h h h h h h d g g : : h h U h h F F h d h h U 9 h h h h h h h h m 4 4 ",
"h h g h h h F h h F h h h h h h 9 9 h h h h g h h h h h h h g h h u ..g & + > : h d h h i h h h h 9 h h h h h h h h h h F h u ",
"g d h h m h F F h m h m h h h h h h h h h h g g h h h h h h h h u Q h h u : : u h d h h m F h h h h 9 h 9 h h h h h h h F Y m ",
"Y h h h h h F h h m h h h i m h m h h h h h h h h h h v g j j d [ < h @.u 3 i F j d g h h h 9 h h h h h h h h h g h h h i l l ",
"F m h h F h h F h m h m h h h h h h h h h h h h h h l d g d g g 4 S 9 4 Y Q h [ g j j g h h d h h h h h h h h h d h g h h F u ",
"4 F h h g h h F h h h h h h h m h m 9 m h 9 h h h h l h d j j 9 8.q 8 q q 4 u Y j d d g h h h 9 h h h h h h d U h h l l [ h h ",
"3 Y h h g h 4 g 9 h h h h h h h h h h h q 9 q 9 h h F l d g g 9 z.q.r < 4 q h F g g g h h h h h h h h h h h g d g h h u h u u ",
"Y u ..h h d g d d v h d h h h h m 4 m < / 2.4 9 q h h h m h 9 9 e.c.r = ,.( 9 h g h h d d v h h ! h m F h u h h g g g j h [ t ",
"h 4 h h g g d g v d d h u h h h 4 9 N 9 8.7.8 4 9 h m h h 9 9 8 r c.- ; n.8.< ) 9 h h [ v h l h ! 9 h F h h h h g j h g u [ u ",
"Y h h 9 g y h g U h U d h h h h g 9 9 9 5.7.q %.7 m m h h h 9 8 0 - ; g.8.8 9 4 u i l F l h l i F u h Y h h v l [ h d u u F L ",
"h g h u d 9 g g d h h v h h m [ h 9 9 9 5.q.' y.9 i L F h h ! 9 w @ 5 -.* * ! q m F [ u h l u [ F m F h h h l d l h X.u i 4 +.",
"# i u [ [ F l u g h l F u u i F h h h 9 ' ,.O.h.7 7 u a i u i m < ^ >   7 ^ , @.F F i h l h i i i h F h u h [ h h h [ u i i i ",
"# F i i [ u u u u h i u i i i t [ h h < 9 0 w 8.4 u a a a u u u i 7 6 t i m $.3 7 i [ h h k u i m u h F h h h l v u u i a i i ",
"s +.i i t i t [ i k u i i +.a 2 u u h h q < < 7 7 i a u t a i u i s s ;.i : u O.u i i u u u i a L 3 4 m l h h h u u u u i p i "
};
