/* XPM */
static char *_21dc06619ad42aee234441027b230206hF66CFgnSdOackY[] = {
/* columns rows colors chars-per-pixel */
"57 106 15 1 ",
"  c None",
". c #2B1744",
"X c #521D45",
"o c #80335E",
"O c #A14869",
"+ c #CC6E6E",
"@ c #FFB366",
"# c #54508A",
"$ c #2E51C7",
"% c #851694",
"& c #1AAB87",
"* c #EBA698",
"= c #FFDAC9",
"- c #CADBE8",
"; c #FFFFE1",
/* pixels */
"                                                         ",
"                                                         ",
"                                                         ",
"                                                         ",
"                                                         ",
"                                                         ",
"                                                         ",
"                                                         ",
"                                                         ",
"                                                         ",
"                                                         ",
"                                                         ",
"                                                         ",
"                                                         ",
"                                                         ",
"                                                         ",
"                                                         ",
"                                                         ",
"                                                         ",
"                                                         ",
"                                                         ",
"                                                         ",
"                                                         ",
"                                                         ",
"                                                         ",
"                                                         ",
"                                                         ",
"                                                         ",
"                                                         ",
"                                                         ",
"                                                         ",
"                                                         ",
"                                                         ",
"                                                         ",
"                                                         ",
"                                                         ",
"                                                         ",
"                                                         ",
"                                                         ",
"                                     ##                  ",
"                                     #;#                 ",
"                                     #;;#                ",
"                          %%%%%%     #-;;#               ",
"                         %@@@@@@%    #--;;#              ",
"                        %@@@@@@@@%   #-#-;#              ",
"                        X@@@@===@@%   ##-;#              ",
"                       X=@@++===++%   #---#              ",
"                       X==@--$=$-@%   #--#               ",
"                        X=@*;&=&;@%   XOOX               ",
"                        %@@*=====@%  XOOOOX              ",
"                        %@@O*===@@%   XooX               ",
"                        %@@OOOOO@@%   XO+X               ",
"                        XO+++++++++X  XO+X               ",
"                       X*OO+++++++*X  XO+X               ",
"                      X***OO+***+***XXXOOX               ",
"                      X***XoooOoXX**=*X===X              ",
"                     X+**+ XO+++X X====O==X              ",
"                     X=**X XO+++X  XX**O=X               ",
"                     X==+X XooOoX    XXooX               ",
"                     X==*X X++++X     XOOX               ",
"                      XXX XO++++OX    XO+X               ",
"                         XO++++++X    XO+X               ",
"                         .X*+++++*X   XO+X               ",
"                        .XXX*****X.   XO+X               ",
"                        .XXX...XXX.   XO+X               ",
"                       .XXX.  .XXX.   XO+X               ",
"                       .XXX.   .XXX.  XO+X               ",
"                      X++O.    X+++OX XO+X               ",
"                     XooooX    XooooX XO+X               ",
"                     XooooX    XoooXX XO+X               ",
"                    XOOOOoX    XoOOOOXXOOX               ",
"                                                         ",
"                                                         ",
"                                                         ",
"                                                         ",
"                                                         ",
"                                                         ",
"                                                         ",
"                                                         ",
"                                                         ",
"                                                         ",
"                                                         ",
"                                                         ",
"                                                         ",
"                                                         ",
"                                                         ",
"                                                         ",
"                                                         ",
"                                                         ",
"                                                         ",
"                                                         ",
"                                                         ",
"                                                         ",
"                                                         ",
"                                                         ",
"                                                         ",
"                                                         ",
"                                                         ",
"                                                         ",
"                                                         ",
"                                                         ",
"                                                         ",
"                                                         ",
"                                                         ",
"                                                         ",
"                                                         "
};
