/* XPM */
static char *_812360d3aa041ae98cc4d1aed867e98GoHSo8U9aeE3CdTX[] = {
/* columns rows colors chars-per-pixel */
"63 63 254 2 ",
"   c #371936",
".  c #2E1431",
"X  c #2C2436",
"o  c #3C273A",
"O  c #3C3738",
"+  c #30252C",
"@  c #48193C",
"#  c #461334",
"$  c #482A3B",
"%  c #463539",
"&  c #56393E",
"*  c #53343B",
"=  c #512933",
"-  c #672B3E",
";  c #394439",
":  c #3A6F3B",
">  c #50483D",
",  c #3C1D40",
"<  c #373842",
"1  c #372E44",
"2  c #3C3E6E",
"3  c #481A46",
"4  c #561D46",
"5  c #491245",
"6  c #472842",
"7  c #562748",
"8  c #493846",
"9  c #543A42",
"0  c #593747",
"q  c #592E52",
"w  c #652D4B",
"e  c #672A49",
"r  c #752A4C",
"t  c #673648",
"y  c #75364C",
"u  c #6A2C52",
"i  c #762C55",
"p  c #693656",
"a  c #7A3757",
"s  c #7B3B62",
"d  c #6D3B66",
"f  c #3A4949",
"g  c #3D4F4F",
"h  c #3A6F53",
"j  c #3C6770",
"k  c #454747",
"l  c #57484B",
"z  c #46534A",
"x  c #4A5448",
"c  c #5A4855",
"v  c #485754",
"b  c #565755",
"n  c #515150",
"m  c #65444A",
"M  c #674A59",
"N  c #7A475A",
"B  c #6E5759",
"V  c #486557",
"C  c #566659",
"Z  c #497A5A",
"A  c #55775B",
"S  c #47674D",
"D  c #666B54",
"F  c #455C6A",
"G  c #575568",
"H  c #4F5773",
"J  c #684769",
"K  c #774665",
"L  c #675969",
"P  c #655D78",
"I  c #735070",
"U  c #476967",
"Y  c #596864",
"T  c #4A7A69",
"R  c #597867",
"E  c #4E7976",
"W  c #567777",
"Q  c #526976",
"!  c #646B68",
"~  c #756565",
"^  c #64786A",
"/  c #636577",
"(  c #677976",
")  c #786E76",
"_  c #873759",
"`  c #963D59",
"'  c #88344F",
"]  c #8A3863",
"[  c #973C64",
"{  c #8C4D5B",
"}  c #864859",
"|  c #994859",
" . c #96545D",
".. c #88585C",
"X. c #A34A5E",
"o. c #A95557",
"O. c #BD6555",
"+. c #894566",
"@. c #954464",
"#. c #9B4A6A",
"$. c #974867",
"%. c #895764",
"&. c #975567",
"*. c #935171",
"=. c #A54B67",
"-. c #A95668",
";. c #B45469",
":. c #A85A75",
">. c #B45A73",
",. c #AA496F",
"<. c #926C6E",
"1. c #B86569",
"2. c #B8726A",
"3. c #A96576",
"4. c #BA6876",
"5. c #BA7577",
"6. c #A97370",
"7. c #C1745D",
"8. c #C76968",
"9. c #C87468",
"0. c #D5746B",
"q. c #C26A7A",
"w. c #C66877",
"e. c #C97476",
"r. c #D67877",
"t. c #D16C70",
"y. c #E07C7A",
"u. c #3D8556",
"i. c #3D824A",
"p. c #42854B",
"a. c #428456",
"s. c #458B55",
"d. c #4B8D5C",
"f. c #488959",
"g. c #518C5B",
"h. c #55875C",
"j. c #4B9155",
"k. c #46935D",
"l. c #4C925D",
"z. c #4C9956",
"x. c #52935D",
"c. c #589658",
"v. c #59974E",
"b. c #5CA458",
"n. c #62AA5D",
"m. c #468D62",
"M. c #4C8D62",
"N. c #4D8D6A",
"B. c #4C8568",
"V. c #558563",
"C. c #538D64",
"Z. c #55836B",
"A. c #5A846B",
"S. c #548D6A",
"D. c #5A8C6B",
"F. c #5B8766",
"G. c #469363",
"H. c #4D9263",
"J. c #4D936A",
"K. c #4B9965",
"L. c #529364",
"P. c #52936A",
"I. c #579767",
"U. c #4E8671",
"Y. c #588874",
"T. c #579271",
"R. c #4E9670",
"E. c #658769",
"W. c #659A68",
"Q. c #6D8E72",
"!. c #5CA268",
"~. c #67A76A",
"^. c #68AA72",
"/. c #77B67B",
"(. c #74AD6F",
"). c #66935D",
"_. c #959577",
"`. c #CC8A5C",
"'. c #D7867A",
"]. c #D8947C",
"[. c #D18B6C",
"{. c #E89873",
"}. c #F8B869",
"|. c #FBBB76",
" X c #EEAB75",
".X c #FFC27A",
"XX c #6A778F",
"oX c #606491",
"OX c #335980",
"+X c #B87A84",
"@X c #AF7088",
"#X c #88768A",
"$X c #C36A82",
"%X c #D37586",
"&X c #6E8896",
"*X c #7A89A7",
"=X c #719E9B",
"-X c #7EA1C1",
";X c #908892",
":X c #BA8887",
">X c #B08E92",
",X c #8B95AF",
"<X c #9CA5AB",
"1X c #9AAFB3",
"2X c #A9AABA",
"3X c #B7AEB2",
"4X c #B89AA8",
"5X c #D88A8A",
"6X c #CC9899",
"7X c #DA9896",
"8X c #CF8F8F",
"9X c #E8958B",
"0X c #E59A95",
"qX c #E68B88",
"wX c #F7A986",
"eX c #FCB986",
"rX c #EBA697",
"tX c #EFA794",
"yX c #D9BAB6",
"uX c #D2ABAC",
"iX c #E8ACA4",
"pX c #F4A9A4",
"aX c #E9B6A5",
"sX c #F5B7A9",
"dX c #F4B9B3",
"fX c #D9A2A1",
"gX c #93C4B8",
"hX c #FDC785",
"jX c #FCCC98",
"kX c #F7C5BA",
"lX c #FFDCB8",
"zX c #FBCCA6",
"xX c #EAE2B4",
"cX c #B5B5C8",
"vX c #9CA6C9",
"bX c #DAB5C2",
"nX c #B6C4D9",
"mX c #B4E5C5",
"MX c #CFD0D0",
"NX c #FAD7C8",
"BX c #FADAD5",
"VX c #EECFC7",
"CX c #FEE6CA",
"ZX c #FCE6D7",
"AX c #F2F0D6",
"SX c #DADDE5",
"DX c #CAD6ED",
"FX c #D9E5EC",
"GX c #FBEBE6",
"HX c #FEF6EA",
"JX c #FEFDFD",
"KX c #F7F8F8",
"LX c #E6EDF2",
"PX c #DCE4CD",
/* pixels */
"I.m.a.f.K.P.H.K.H.H.L.L.H.d.a.u.H.J.J.G.d.j.x.C.Z I.p.s.a.J.H.L.u.k.K.s.s.j.K.H.G.K.G.J.G.K.x.p.a.s.l.z.J.R.d.d.G.G.K.k.j.Z V.",
"H.H.H.H.L.H.M.H.H.H.H.H.H.H.H.K.H.H.K.G.l.l.d.a.d.a.L.L.P.M.H.l.l.L.K.H.l.z.L.L.L.K.G.J.J.G.S.C.S.l.l.L.H.N.M.H.H.K.R.G.l.d.F.",
"a.H.K.H.H.H.H.H.H.H.M.H.H.H.L.P.J.H.G.H.J.K.M.h a.u.J.J.l.H.l.l.P.C.H.J.K.l.l.l.M.M.M.N.&XU.Y.Y.Y.U.H.K.G.l.K.L.L.S.J.J.l.x.C.",
"f.H.H.M.M.H.L.H.H.H.H.H.H.H.M.M.N.H.H.z.H.J.H.d.a.R.m.J.f.K.l.I.L.N.M.J.J.G.l.x.g.I.P.N.U.F U U W Y.S.H.H.l.H.g.M.S.G.J.l.l.d.",
"P.L.H.d.H.H.H.H.H.H.H.L.L.H.H.M.C.C.x.L.M.S.P.J.J.P.l.l.x.d.k.k.l.x.H.H.H.J.H.L.M.L.H.S.W Q XX,XXXR Z.N.H.H.d.H.C.C.N.P.H.H.M.",
"L.H.H.H.L.H.H.H.M.H.H.H.H.K.P.H.S.C.g.x.C.L.J.H.R.H.L.x.j.~.M.H.H.H.K.H.M.M.N.N.I.l.l.V.E F ;XLXcXW U Z.N.G.L.H.L.K.H.J.K.G.m.",
"H.H.H.H.H.H.M.L.H.H.H.H.M.H.H.H.K.K.l.x.x.x.H.H.J.M.L.L.).(.D.Y.F.Y.T.N.P.L.S.J.l.j.z.C.XXF ;XKXLX<XE.E T U.P.G.H.j.l.H.H.d.M.",
"H.K.L.M.K.H.H.H.H.H.L.H.H.H.H.H.G.G.L.x.d.l.L.S.V.Z.R R _.Q.^ W W W E Y.S.H.C.L.z.z.z.M.E F ,XLXKXPX<XQ E T R.J.K.j.H.M.K.M.I.",
"H.H.L.H.H.H.H.M.H.H.H.H.H.H.H.H.k.G.k.H.P.J.S.A.! P I J oX~ I J J P H W Y.S.L.j.b.n.s.T.oXF ;XDXJXHXFX<X( U E N.m.G.l.l.H.C.M.",
"H.M.H.H.H.M.H.H.H.H.H.H.H.H.H.l.K.l.l.L.M.Z.Y.! M K K ] +.+.s K K K M G ( Y.F.j.b.n.k.T.U.F XXMXHXKXJXSX2X( U U.U.H.l.l.L.C.C.",
"H.H.H.H.H.H.L.K.H.M.H.H.H.H.H.H.G.G.H.P.M.Y.( J 6.9.e.1.2.2.6.5.8.9.6.K L ( Q.W.b.n.H.U.XXj XXnXLXLXJXJXSX<XXXW T U.L.l.x.C.C.",
"L.L.H.H.L.H.M.H.L.H.H.H.H.H.M.H.L.l.I.D.W ^ c ..]. XwXeX XwX XwX X|.tX6.N B Q.(.!.!.G.U.T j *XDXDXMXFXKXHXLX<X/ U Y.I.H.H.g.C.",
"H.H.H.H.L.H.M.H.H.H.H.H.H.M.H.H.l.L.F.^ / I <.].|.}.|.}..X.X|.|..X.X|. X6.+.~ Q.D.I.d.S.E j *XDXcX,XcXSXJXJXcX/ F &XT.G.H.M.I.",
"d.H.H.d.H.K.H.L.H.H.H.L.H.H.H.H.j.L.V.^ J N ].eX}.}.}.}.}.}.|.|.|.}.}.eXwX2.N L ^ F.L.S.E U &XnX,XOXXXMXJXLX2XG F U.T.G.G.d.T.",
"u.H.L.G.H.H.M.H.H.M.H.H.H.H.H.H.H.d.V.^ l * `.hX}.}.}.}.}..XjXzXzXzXjXjXeX X2.%.L ( F.H.N.T XX*XoX2 oXDXJXKXcX/ F &Xm.G.J.M.D.",
"u.L.P.H.H.L.H.H.H.H.H.H.H.H.L.H.K.V.V.C m B `.}.}.}.}.{. XeXlXCXCXZXlXjX XeX5X*.d / A.M.J.U.E F H oX,XDXKXLXvXP F ( N.G.K.m.C.",
"G.l.G.l.H.H.M.H.H.J.N.H.H.H.H.H.d.f.V n _.6X.X}.}. X`.O.7.fXNXGXGXZXZXiX2.[.4.$.d oXA.M.C.Y.E F XXvXcXLXKXFX,XQ U Y.N.H.l.H.d.",
"L.H.H.H.H.H.k.K.J.H.J.J.H.H.H.x.L.S f b uXZXjX.X X X].:X[.4XbXMXBXMXcX4X8X{.e.$.d oXZ.C.L.D.E F vXDXLXLXDXcX*XXXU Y.P.L.l.l.M.",
"I.K.H.l.H.l.H.H.N.H.S.J.H.H.H.l.L.S k c uXAXCXjX X XyXyXnX-X*XvXSX3XoX,XuXaX5X .d P Y.S.C.A.W F -XDXKXFXvXXXQ E N.J.N.L.C.C.L.",
"M.K.H.H.H.H.H.L.H.H.H.H.H.H.l.H.I.T v c XXyXlXlX|. XxXPXDX-XoXXXMXvXOXgXAXNX9X .d P A.C.F.T.Q 2 oXcXMXcX#XG F Y.N.G.M.S.I.S.I.",
"d.J.H.M.l.l.L.H.H.H.H.H.H.l.l.H.L.C.R b L <.yXlXhX XaXZXPXgX=X=XmX<Xj gXHXCX0X&.K P F.h.D.A.H < K @X@X@XJ q v W V.P.J.J.J.M.H.",
"d.J.M.l.l.d.l.l.H.H.H.H.H.H.H.l.l.g.A.( q q 8XlXeX XtXkXAXmXgXgXxXMX=XmXAXlX0X#.K P E.F.A V n 0 a [ +.] s p 8 b S F.T.J.G.l.d.",
"M.L.d.I.I.j.l.x.l.g.H.H.H.H.H.H.k.G.M.R J y [.hX.X X9XsXNXCXPXPXCXPXmXAXlXzX7X#.J P ^ D.A k 0 a +.[ [ [ @.s t % ; ^ A.g.x.!.s.",
"L.H.d.~.^.x.l.l.l.H.H.H.H.H.H.H.k.K.S.R oX@.`.|.}.{.'.7XdXNXAXCXCXlXCXxXhXjX7X<.J oXR D.Z x 9 +.@.[ #.[ $.} 0 8 ; Q.E.c.n.~.s.",
"L.l.d.!.^.j.I.z.l.I.H.H.H.M.P.H.J.P.D.W oX+.`..X.X[.o.8.7XkXCXCXZXCXNXzX}..X7X .M / h.x.l.A b 7 u ] ] ' r - n R R D.W.~.v.(.h.",
"l.x.j.!.^.c.^.l.l.d.L.H.H.P.M.J.G.J.V.Y +.+.5XhX.X{.| o.1.8X6X6X6X8X7XwX|.hX{.o.M / V.l.j.I.D o 4 ] ,.$.y * n A.S.d.W.~.v.n.I.",
"s.l.j.!.!.I./.k.l.L.H.H.P.H.H.H.J.G.D.^ I _ ].eX.X{.o.| | #.&.=.,.=.o.[.|.eX0X-.p L R L.H.S.Y o w $.+X4.} 9 x Z.C.M.!.~.v.d.L.",
"i.x.x.x.z.l.^.l.H.L.M.P.M.P.M.H.J.m.D.^ M 4 o.].{.`.2.3.-.-.;.;.,.;.o.9.{.{.'.>.N c V T U.S.Y O w @.w.4...* z Z.C.K.H.H.M.M.m.",
"s.x.l.l.l.l.L.x.K.d.P.H.d.L.f.L.N.S.A.Y p t _ -.8.8.%Xw.8.8.t.8.8.w.O.8.9.7.0.0.&.m 8 U Y.D.C O - | q.e.%.9 z W C.I.d.m.R.N.D.",
"H.K.H.f.x.l.k.I.H.L.H.d.L.j.I.x.C.Z.C n K 3.#.` X.;.%X%Xt.t.8.8.8.8.8.9.8.8.0.9X5.m O G Y.Z.C % - #.e.e.%.9 z Z.C.d.H.T.N.m.S.",
"K.J.M.H.K.H.l.H.l.I.d.l.I.z.~.x.h.S n B _.0X$X| X.-.w.r.r.r.y.r.r.r.'.r.0.t.qXpX6X..9 n Y R n = e | >.;.' $ z Z.I.g.d.x.H.H.M.",
"H.K.H.K.H.H.P.l.H.l.H.x.j.^.c.W.A x B 5.iXsXrX4.=.=.;.;.e.r.9X9X0X9X9Xr.e.5XrXpXiX:X..l > z 9 @ u @.:.=.y $ z Z.f.I.x.g.L.L.f.",
"u.G.K.k.I.C.m.J.K.k.H.l.L.x.(.h.; > <.iXsXrXaX8X:._ | =.1.e.8X7X0X0X5Xw.3.+X7XiXsXaX:X%.% l 7 . u 3.@X@X@.t x A Z L.g.L.C.C.C.",
"J.G.K.l.d.S.P.M.G.k.K.H.H.g.W.A > t 5.sXzXtXsX7X+.w ' ' | =.:.+X$X4.-.| y } <.8XpXkXdXfX>X:X} # +.uXuXbXuX>X~ x z I.C.L.C.M.D.",
"R.m.G.L.C.I.P.H.k.G.H.H.M.S.E.C 9 m 5.rXsXtXpX8Xm $ u r ' ' ' ` =.| _ e   . * <.7XkXkXBXZXVX:X- 3.dXBXHXGXBX;X8 O Q.D.L.M.f.Q.",
"M.K.l.l.x.C.M.H.J.J.H.J.S.D.V > m &.8XpXsXtX0X6.B n 7 e _ | ;.;.>.>.,.e o c m > ..aXZXHXGXCXkXaX:X:XfXBXHXGX>X7 X ( D.x.H.d.T.",
"u.I.L.g.j.h.L.l.M.J.H.K.S.Z.f O ..8XiXsXpXrX5.%.^ Y 6 7 &.1.r.'.r.%X%XN % ( ^ x l _.yXkXyXNXCXZX8X{ :XVXBXuX<.k f E.S.k.k.l.C.",
"d.K.I.~.).j.j.l.C.M.L.I.M.A.k 9 >XdXsXaXrX7X&.& A C 1 q +.3.r.r.r.r.r.{ % C D.A S x n M <.yXNXNX:X:.iXNXuX~ 8 Y Y Y.H.k.k.G.d.",
"P.l.I.~.(.b.v.!.!.I.x.l.d.F.k 0 >XNXNXkX7Xe.y $ Y C 6 u a #.>.1.8.;.;.y % C T.d.v.> ; O l <.4X8X*.#.8X8X<.9 > F.D.I.l.K.K.K.C.",
"K.g.j.v.(.(.b./.W.M.l.l.l.C.8 8 >XNXAXlX].6.e * R C 8 q i _ ' | X.X.' - * b V.j.z.c.R ! b l M 7 i s #.@.p % b ).j.j.s.K.l.l.L.",
"L.l.j.c.v.b./.j.L.C.j.z.K.h.O 8 4XGXHXAXdX[.m + ^ ^ 6 e ` [ =.X.-.-.| e * Y Q.).b.(.g.V.R b 8 # u s ] _ 7 0 D Q.v.v.^.S.g.L.g.",
"N.H.L.l.i.: j.i.g.H.l.k.l.C.k k >XVXZXBXuX:Xl k R C % y ;.8.w.w.4.4.3.a = B Q.W.W.^.g.C.F.R x o u +.#.] u = l (.).(./.!.C.g.L.",
"N.J.H.H.z.i.s.d.H.L.H.j.k.C.C n ) >XuX4X>X<.G v b l 0 { w.r.r.t.e.r.e.| e m D Q.c.W.l.H.L.F.C $ q *.>.:.N * > )._.(.c.g.l.M.C.",
"R.J.H.H.l.z.l.P.H.L.H.G.H.C.F.C b c c M 0 c Y ! l m ' -.w.r.r.0.e.9.e.1.} 0 x h.h.g.l.L.C.A.C O p $.q.4.{ 0 z S j.j.a.l.L.H.M.",
"N.N.J.G.M.L.H.H.M.H.H.J.J.N.D.A.V z O % > k Y L - ' -.4.2.e.t.e.e.t.e.e.:.t % C h.C.M.H.M.D.Y $ u @.w.e.{ 9 z Z h s.K.x.l.K.m.",
"J.J.H.K.M.L.H.J.J.H.H.L.K.m.C.C.V.R A A A R z 0 N -.%Xr.9.9.8.8.t.8.t.%Xq.} > x E.C.C.J.H.Y.Y $ e #.w.8.{ & g Y.l.k.K.l.d.H.m.",
"H.I.k.l.M.L.M.H.H.x.l.L.K.G.H.l.H.M.C.C.S.E.< 6 4 @X8X5Xr.8.8.t.8.7.t.8.t.$X<.B C A J.J.m.S.C 6 u #.8.1. .& g A.C.x.L.L.l.f.D.",
"u.K.j.l.H.L.M.P.l.l.L.M.H.R.k.l.H.K.l.H.Z.R 1 . . *.8X0X'.7.8.0.0.0.8.7.e.iX6XB f S B.J.J.S.C $ u #.w.2.{ 9 v R C.x.g.L.x.B.W.",
"u.K.L.H.H.H.l.H.H.G.H.H.H.J.H.L.M.I.m.m.V < 1 , , q ] +X0XpXtX0X9X9XtXtX0X8X%.8 O h B.J.H.S.C $ e $.w.4.+.& x A.V.H.K.H.d.H.D.",
"f.K.H.H.C.l.l.H.H.K.H.H.H.M.M.L.H.H.k.B.f X 3 3 4 5 5 +.:XfXiXfXrX0X0XiX6X..@ . < U U.m.G.D.Y $ e #.w.4.{ & z A.S.H.L.H.l.M.M.",
"G.H.H.L.M.H.H.H.H.H.H.H.H.H.H.H.L.M.N.Z.f X   7 4 5 , 7 M B %.K K *.&.*.%.w 5 . X h C.G.d.S.Y 6 e #.w.w.{ & z Z.S.H.H.H.H.H.M.",
"J.H.H.H.x.x.L.l.H.H.H.H.H.H.H.C.L.V.T U 8   @ = 4 3 3 1 1 < 1 ,   @ 4 4 4 4 ,   f V C.H.l.D.Y $ e #.w.4.{ & z A.C.H.G.H.H.K.L.",
"I.H.l.H.H.l.L.H.l.H.H.H.H.H.H.H.m.U.h < 1 3 3 4 4 3 , 1 g V v < . . 3 5 5 4 5 , O V S.H.z.F.C $ e $.q.w.{ & x A.I.M.H.H.G.H.C.",
"H.l.H.H.H.L.C.L.L.H.M.H.G.l.H.H.U.T f X , 3 @ 4 3 , 1 f U R T V f X 3 5 # 5 5 . X z A V.L.C.G $ e $.q.4.{ * z A.C.H.H.K.l.G.C.",
"d.l.G.l.K.H.l.L.L.H.H.l.G.H.G.L.J.U ; +   3 4 4 7 , X g R D.S.h.Z ;   3 4 4 4 @   8 z R S.D.Y 6 e #.w.w.{ & z R M.M.l.H.z.K.L.",
"s.L.H.H.H.H.M.H.H.L.G.H.H.H.M.L.V.S l t t y w 7 6 , < v Z l.H.m.(.S   7 a u a a t 6 8 v Z.Y.U O w | w.q.{ & z V.L.H.H.H.l.H.M.",
"x.l.K.k.G.G.K.H.d.I.k.G.H.M.S.R C l N 3.4.:.*.p 6 1 v Z M.G.K.G.(.D + N >.>.>.4.:.+.N 9 z E.Y o e &.w.q.{ * x A.S.K.L.K.l.H.M.",
"l.l.G.K.J.H.H.H.M.L.l.G.L.T.A.C O 0 &.$X%X$X:.s 3 f R S.K.k.K.G.Q.D = { @X$X$X$X$X:.+.6 O ^ ^ $ e $.w.q.{ * x A.C.H.d.H.l.H.C.",
"L.H.H.H.J.m.L.L.K.l.k.H.M.A.z ; 7 i +.$.[ [ ] i $ 9 ^ x.j.l.H.S.h.b $ a @.@.@.[ [ ] s 7 8 ^ D O e $.q.q.} & z Z.C.H.L.d.l.x.L.",
"C.L.G.H.H.M.L.L.L.l.G.P.S.Q.x $ p s a i r i s i 7 k A h.j.x.J.S.F.x o 7 i i i i i e e 7 k ) ! O e $.$Xq.&.& z F.S.M.I.H.H.d.S.",
"a.C.M.P.P.L.L.g.l.l.H.M.A.( c $ w i ] _ _ ] ] d 7 k R g.x.x.C.D.E.x 6 u a ] ] ] u e 4 4 9 ) ~ = e $.$Xw.{ 9 z A.D.H.L.H.H.d.D.",
"a.C.H.C.S.C.g.g.H.l.K.M.E.n 0 u _ ] ] ] ] ] ] i 7 8 R S.g.g.g.V.F.v $ u ] ] ] ] _ i i i q c * + e #.>.>.' * f Z.S.C.M.d.L.C.C.",
"S.S.C.C.M.C.f.C.l.l.H.L.E.O q +.$.#.$.#.[ @._ i q q T Z.V.L.x.M.R v $ e _ ] ,.[ @.} +.+.p q 3 7 r $.>.-.y * z R V.H.M.C.g.L.V."
};
