/* XPM */
static char *result[] = {
/* columns rows colors chars-per-pixel */
"57 42 48 1 ",
"  c #4F2A13",
". c #512F19",
"X c #4F311A",
"o c #54321C",
"O c #553720",
"+ c #553923",
"@ c #5A3C25",
"# c #5C422C",
"$ c #5F4632",
"% c #5D4935",
"& c #534A3D",
"* c #5F4C38",
"= c #604732",
"- c #604E3A",
"; c #5F5648",
": c #615749",
"> c #635A4B",
", c #685E4E",
"< c #665E50",
"1 c #695F50",
"2 c #676051",
"3 c #6B6354",
"4 c #6E6857",
"5 c #6E6758",
"6 c #6F6958",
"7 c #746E5E",
"8 c #75705F",
"9 c #766F60",
"0 c #767060",
"q c #7B7464",
"w c #7C7866",
"e c #7D7668",
"r c #817C6E",
"t c #837E70",
"y c #84806F",
"u c #868271",
"i c #898576",
"p c #8D8877",
"a c #8B8778",
"s c #8D8979",
"d c #928D7D",
"f c #8F8C80",
"g c #918E82",
"h c #959184",
"j c #96948A",
"k c #9A968E",
"l c #9B988F",
"z c None",
/* pixels */
"zzzzzzzzzzzzzzzzzzzzzzzzzz$$$$$$#=zzzzzzzzzzzzzzzzzzzzzzz",
"zzzzzzzzzzzzzzz===========rretetrr=zzzzzzzzzzzzzzzzzzzzzz",
"zzzzzzzzzzzzzz=788rttttttttreeterrr=zzzzzzzzzzzzzzzzzzzzz",
"zzzzzzzzzzzzz=8788ttttttttrtitetrr13=zzzzzzzzzzzzzzzzzzzz",
"zzzzzzzzzzzz#8777ttttttttttteeet3331=zzzzzzzzzzzzzzzzzzzz",
"zzzzzzzzzzz#8877rtrspdtttteeei;<:1355=zzzzzzzzzzzzzzzzzzz",
"zzzzzzzzzz#78878ttsssssiiteett;;::535=zzzzzzzzzzzzzzzzzzz",
"zzzzzzzzzz#77770ttssppsstfftee>;::3353=zzzzzzzzzzzzzzzzzz",
"zzzzzzzzzz#778079gafssssftttttee1rr-,1o@=#=zzzzzzzzzzzzzz",
"zzzzzzzzz#77807099ghhhssafapspeerrrrrrrrr9r=zzzzzzzzzzzzz",
"zzzzzzzz#rr70000011533gdssssspierrrrrrrrqqr7=zzzzzzzzzzzz",
"zzzzzzz#rrrre0701551333gsssspsparrrrr6r59rr9r==#==zzzzzzz",
"zzzzzz#yyrrywys453<5399qjjspsssspprrrrrrrrr8rr7ree=zzzzzz",
"zzzzzz#ryrrrysdaaaaap9q99qgpssssdpttrrrr9tttttttqeq=zzzzz",
"zzzzz#rrrryysfaaaaaapaq9qqqggpssdpptrtpttpuuppppaaqq=zzzz",
"zzzz#ryryrrdhfaaaaaappppq9qqqdsdpppppttpptdpppppaaaqe#zzz",
"zzz#q90q56ffgfaaaaaaaaasaaiiisssddddppupudpppppppaa<<2#zz",
"zzz#894356ggfaaaaaaaaaaaaiiadddgddddddppdpppdpppaai<<2#zz",
"zzz#954454ffaaasaaaaaaafiiigdddddddddddddpdppppppf<<<<#zz",
"zzz#8534647gaaaaaaaaftatiifsdddddddddddddddppdppg>,<<,>#z",
"zzz=%%467676faaaaaaaiiaaiidddddddddddddddddssspd>>::>>2>@",
"zz$pii$767677gaaaaaatitfiihddddddddddddddpdddsk>,>::;&&&+",
"z#iuiii%677659gfffhgjtatiihdddddddddddddddddkh,:,:::;&&&+",
"@uiiiiia&67777>>;>>>;jgaiihhdddhddddddllkkhh,,,,>>::;&&&+",
"+9hiiiiii*969;;>;>>;;>3jjjhhhdddddddll877788,,,,>:>>&&&&o",
"+70hiuiiii#9>>>>>>;>>33344jjhddddlldl888786,>,>,,>>-&&&Xz",
"+099jgiutiu&>;;;;>>>23333477jkhhdddd8888778@@@o#@>,,&&.zz",
"+00535gfffffO;;;;3222333337788uiupp,4,1887@y8842,@>>&Xzzz",
"+05535535>>;X&;;322223333277888yuu,,4,4,8@r8w8w432@,ozzzz",
"z+343555>;;>X&;22222222338778887u,,4,,,,@rr88w8w22&+zzzzz",
"zzOXX53;;<;;o;&22222232368877877p,,,,,o@r88rw8qqq2&ozzzzz",
"zzzzzX5;;<;oz 222222223664477777,,,,4@yyyyr8w8qqy&&ozzzzz",
"zzzzzzooooozzzoo2222325557447777,1,1@yyyyyyyyewu&&&Xzzzzz",
"zzzzzzzzzzzzzzzzoo3<235556445777,,,@gtyyuuyyyud>;&&Xzzzzz",
"zzzzzzzzzzzzzzzzzzoooo5455445531,,@ggrttytyrtp>>;;&&.zzzz",
"zzzzzzzzzzzzzzzzzzzzzzoo..34535,>>@78gdggsdph>>>;;&&.zzzz",
"zzzzzzzzzzzzzzzzzzzzzzzzzzoooo6,1<@777777gsh>>:>;>;;.zzzz",
"zzzzzzzzzzzzzzzzzzzzzzzzzzzzzzoooo@7777775h>>>>:>>  zzzzz",
"zzzzzzzzzzzzzzzzzzzzzzzzzzzzzzzzzz@7777764:::>>:  zzzzzzz",
"zzzzzzzzzzzzzzzzzzzzzzzzzzzzzzzzzz 7677547>:;>  zzzzzzzzz",
"zzzzzzzzzzzzzzzzzzzzzzzzzzzzzzzzzzz 777444::  zzzzzzzzzzz",
"zzzzzzzzzzzzzzzzzzzzzzzzzzzzzzzzzzzz        zzzzzzzzzzzzz"
};
