/* XPM */
static char *e8384b24bc494eddddca00f97d8ea5e2Eg8gM47L2BmLliBN[] = {
/* columns rows colors chars-per-pixel */
"63 63 229 2 ",
"   c #3D2F14",
".  c #37331A",
"X  c #2A351A",
"o  c #2D3E23",
"O  c #3B3A25",
"+  c #4C2B17",
"@  c #4B321A",
"#  c #4C3D2D",
"$  c #463926",
"%  c #523F2D",
"&  c #4B3F31",
"*  c #553F32",
"=  c #2D4525",
"-  c #324324",
";  c #3B442B",
":  c #3A472B",
">  c #3E4B32",
",  c #3D5335",
"<  c #3C572E",
"1  c #3C623D",
"2  c #42432B",
"3  c #4B412F",
"4  c #414C2E",
"5  c #51402E",
"6  c #464631",
"7  c #4E4532",
"8  c #444B33",
"9  c #4B4B35",
"0  c #4D4D39",
"q  c #544536",
"w  c #534A35",
"e  c #554B3A",
"r  c #5A4B3C",
"t  c #594936",
"y  c #45543A",
"u  c #4B533C",
"i  c #425B3C",
"p  c #4B593E",
"a  c #455436",
"s  c #54523D",
"d  c #5B523E",
"f  c #555B3C",
"g  c #5F593F",
"h  c #61553D",
"j  c #44603D",
"k  c #3C7A42",
"l  c #3F7E49",
"z  c #5F4F42",
"x  c #485D42",
"c  c #5C5444",
"v  c #525C43",
"b  c #5B5A46",
"n  c #5D5649",
"m  c #5E5A49",
"M  c #555A45",
"N  c #634E43",
"B  c #635546",
"V  c #625A45",
"C  c #6E5D47",
"Z  c #635549",
"A  c #6A564A",
"S  c #645C4C",
"D  c #6B5D4D",
"F  c #725E4C",
"G  c #6C5E51",
"H  c #645E50",
"J  c #755F54",
"K  c #466242",
"L  c #4B6244",
"P  c #4E6549",
"I  c #4D6A4A",
"U  c #466E45",
"Y  c #556244",
"T  c #536449",
"R  c #5C634B",
"E  c #526B4C",
"W  c #5C654A",
"Q  c #4B714D",
"!  c #467549",
"~  c #58764D",
"^  c #566F51",
"/  c #5F6050",
"(  c #4B7C56",
")  c #547454",
"_  c #597657",
"`  c #547954",
"'  c #567E5A",
"]  c #5B7D5B",
"[  c #5B7757",
"{  c #64624E",
"}  c #6A624F",
"|  c #616646",
" . c #656352",
".. c #6B6353",
"X. c #636C53",
"o. c #6C6956",
"O. c #6D6759",
"+. c #6D6B5A",
"@. c #716555",
"#. c #716B56",
"$. c #746559",
"%. c #746C5C",
"&. c #796C5D",
"*. c #7C645A",
"=. c #647353",
"-. c #6E745D",
";. c #647E5E",
":. c #6A7B5C",
">. c #73725E",
",. c #78715E",
"<. c #746F61",
"1. c #7B6E62",
"2. c #627C61",
"3. c #757262",
"4. c #7B7464",
"5. c #747B63",
"6. c #7C7965",
"7. c #7D7569",
"8. c #7D7B6C",
"9. c #767D6B",
"0. c #7F7D70",
"q. c #817466",
"w. c #827A66",
"e. c #82776A",
"r. c #837C6C",
"t. c #8A7B6D",
"y. c #837D71",
"u. c #8A7E71",
"i. c #907F77",
"p. c #3D8454",
"a. c #418455",
"s. c #4A8454",
"d. c #428957",
"f. c #4C8C55",
"g. c #458459",
"h. c #4B855B",
"j. c #458B5C",
"k. c #4B8D5C",
"l. c #53845D",
"z. c #5B835D",
"x. c #538C5D",
"c. c #5B8A5D",
"v. c #548356",
"b. c #4C9256",
"n. c #46935E",
"m. c #4D925D",
"M. c #4E985B",
"N. c #52935C",
"B. c #59945E",
"V. c #5A9F5F",
"C. c #53975A",
"Z. c #618A5E",
"A. c #4C8D62",
"S. c #478E61",
"D. c #5D8662",
"F. c #548D63",
"G. c #5A8B63",
"H. c #5D8D69",
"J. c #558965",
"K. c #479462",
"L. c #4E9465",
"P. c #4D9263",
"I. c #4A9964",
"U. c #4E9269",
"Y. c #4D9468",
"T. c #4D9968",
"R. c #519166",
"E. c #509566",
"W. c #519566",
"Q. c #529264",
"!. c #5B9565",
"~. c #559964",
"^. c #5B9D64",
"/. c #519569",
"(. c #549469",
"). c #5B936A",
"_. c #539A6A",
"`. c #5A9C6A",
"'. c #539770",
"]. c #648462",
"[. c #698262",
"{. c #628A66",
"}. c #648B69",
"|. c #6D8D69",
" X c #698B64",
".X c #7B816B",
"XX c #748E6C",
"oX c #669869",
"OX c #649871",
"+X c #7A8370",
"@X c #5DA164",
"#X c #5EA36B",
"$X c #5BA567",
"%X c #61A267",
"&X c #64A46C",
"*X c #64AA6C",
"=X c #6BAA6E",
"-X c #6BAD73",
";X c #68AA71",
":X c #70AF78",
">X c #72B37B",
",X c #7AB87D",
"<X c #71B174",
"1X c #6FB376",
"2X c #83816D",
"3X c #8B806F",
"4X c #858373",
"5X c #8A8575",
"6X c #868874",
"7X c #8B8976",
"8X c #878578",
"9X c #8B8778",
"0X c #8D8A7A",
"qX c #858E7B",
"wX c #928374",
"eX c #93857A",
"rX c #918D7D",
"tX c #998A7D",
"yX c #908977",
"uX c #93907F",
"iX c #938E81",
"pX c #9B8C85",
"aX c #959182",
"sX c #9A9484",
"dX c #9E9A8A",
"fX c #999388",
"gX c #A29C8C",
"hX c #A3948D",
"jX c #A6A090",
/* pixels */
"_.k.p.j.E./.P.E.P.P.P.E.P.k.a.p.P.Q.W.P.S.S.U.U.g.'.g.g.g.T.U.'.a.P.T.j.a.m.L.E.W.m.L.m.E.E.A.d.a.S.A.E./.W.k.j.L.K.E.k.h.a.J.",
"P.P.P.P.L.P.P.P.P.P.P.P.P.P.P.P.Q.P.P.P.P.P.A.p.h.a.R.R.Q.A.U.U.P.L.P.P.P.P.L.P.P.P.P.P.P.E.P.k.P.U.P.P.P.P.K.Y.L.K.E.W.J.F.J.",
"a.A.L.P.P.P.P.P.Q.P.P.P.P.P.E.E.P.P.P.P.Y.Y.S.p.a.a.N.~.P./.A.P.L.m.P.P.T.U.P.P.A.P.P.P.P.P.L.W./.L.Q.P.A.P.L.L.P.P.P.E.P.F.H.",
"j.P.P.P.P.Q.P.P.P.P.P.P.P.P.P.A.m.P.T.P.Y.P.A.j.a.W.f.m.k.U.P.P.m.m.P.Q.P.A.A.U.U.U.T.P.P.m.m.E.A.P.P.P.P.P.P.m.P.K.A.L.A.F.A.",
"/.E.P.k.P.P.P.P.A.P.P.P.P.P.P.P.m.K.Y.Y.K.K.Y.L.m.W.N.b.E.m.m.n.m.m.L.P.A.U.U./.U.P.P.P.P.P.P.m.P.P.P.P.P.P.P.E.P.P.k.E.F.(.J.",
"E.P.P.P.P.P.P.P.P.P.P.P.P.P.Q.P.P.P.K.P.K.Y.Y.m.N.k.C.b.k.&Xm.M.L.P.P.P.P.T.R.P.P.U.P.P.P.P.P.P.Y.P.P.P.P.Q.P.Q.P.P.P.L.U.A.A.",
"P.P.P.P.P.P.A.L.P.P.Q.P.P.P.P.P.Y.P.P.Y.P.P.P.m.m.b.b.N.C.1XM.m.m.P.P.m.P.Q.P.k.Q.P.P.Q.P.P.P.P.K.P.P.Q.P.Q.P.A.P.P.P.P.P.A.A.",
"L.P.P.P.Q.P.P.P.P.P.P.P.P.P.P.P.P.K.P.K.S.Y.P.L.N.B.x.C.,X=XC.m.P.P.P.L.P.P.m.M.W.m.m.W.P.P.P.T.P.K.P.P.A.P.Q.E.P.P.Y.A.Y.A.U.",
"P.P.P.P.A.P.P.P.P.P.P.P.P.P.P.P.P.P.P.P.P.P.P.m.B.>Xb.C.<X=XC.C.P.A./.m.m.m.C.b.$X-Xb.m.P.P.U.P.Y.K.P.P.Q.P.F.P.P.P.P.P.P.T.A.",
"P.P.P.P.P.P.P.P.P.P.P.P.P.P.P.Q.P.P.P.P.P.P.Q.N.~.:X-X1 =Xf.C.b.U.S.U.P.m.b.C.b.@X*Xf.M.k.U.P.U.K.Y.P.P.P.A.P.P.Q.P.P.P.U.(.A.",
"P.P.P.P.P.P.P.L.P.P.P.P.P.P.P.P.P.Q.U.F.P.P.Q.k.k.! ,X=X1 !.b.N.R.Y.P.L.M.b.@XV.@X*Xb.m.P.P.U.P.Y.P.A.P.Q.P.P.P.P.P.P.Q.A.R.A.",
"E.Q.P.P.P.P.P.P.A.P.P.P.P.P.P.P.m.m.P.P.A.Q.P.Q.N.s.k p.M.k.~.k.P.P.P.L.m.f.*X*XV.%Xb.L.L.P.U.U.Y.Y.P.P.P.P.P.P.P.P.P.L.U.F.A.",
"P.P.L.P.L.P.A.L.P.P.P.P.P.P.P.m.P.P.P.P.P.P.P.A.x.Q.f.f.~.E.k.W.A.U.U.P.k.k.*X#XC.B.m.m.P.P.P.U.P.P.P.P.P.Q.P.P.A.P.P.Q.F.A.J.",
"j.P.P.k.P.P.P.Q.P.P.P.P.P.P.P.P.N.P.P.P.P.P.P.P.m.Q.~.j.L.m.P.K.P.P.P.P.Q.N._.N.k.m.k.P.P.P.P.P.P.U.P.P.P.P.P.P.P.Y.P.P.F.k.(.",
"d.Q.L.P.P.L.P.P.P.P.P.P.m.P.P.P.L.P.P.P.P.Y.P.P.P.m.Q.Q.m.L._.P.T.P.P.P.(.k.A.F.F.Q.P.Q.Q.P.P.m.A.Y.P.A.P.P.P.P.K.L.P.P.F.A.H.",
"a.P.T.A.P.P.P.P.P.P.P.P.P.P.m.P.m.m.m.P.P.U.A.P.F.Q.A.R.P.A.A.U.Q.F.G.J.Q.h.g.(.U.Q.A.P.P.A.P.L.P.P.P.P.U.P.P.P.K.K.P.L.(.A.D.",
"P.L.K.K.m.P.m.P.Y.I.K.K.W.k.m.N.x.B.x.x.F.F.F.F.F.G.G.G.G.G.G.D.D.H.}.}.( ' ( a.P.P.P.Q.Q.m.A.m.n.K.P.U.U.P.P.m.b.L.L.L.Y.R.k.",
"L.L.K.m.L.P.A.L.S.K.I.Y.k.!.N.B.` ` ` ` ` ` ` ` ` ` ` ) E I E I P E M M P I ( x.P.P.P.A.W.P.P.L.m.K.P.U.R.P.P.P.K.n.Y.K.A.Q.A.",
"L.L.P.A.L.m.A.W.Y.K.K.U.E.x.l.[ p u s v v v v M b p s m 3.4X4X8.6X8.4X8.+XT L }.F.P.P.P.L.P.P.K.m.W.P.P.U.U.P.P.L.n.n.L.Y.S.L.",
"K.Y.Q.Q.m.L.A.N.U.K.R.Q.Q.l.;.x ,.,.4.r.3X3X4Xu.3X5X0X5Xr.e.y.u.7.4.4Xr.e.4XL _ G.Q.P.K.K.K.P.L.m.N.F.U.Q.A.P.P.P.M.L.m.L.j.L.",
"j.T.F.F.Q.k.W.P.A.(.F.F.D.] x +.#.,.1.e.u.r.y.y.y.y.y.y.r.e.t.e.u.y.<.q.r.Z X.y ] G.Q.P.P.P.Q.x.Q.Q.k.Q.W.P.P.P.Q.m.N.m.Q.k.m.",
"S.L.A.A.N.f.N.m.(.A.A.H.] , <.%.&.,.q.y.y.u.y.0.y.y.y.y.u.y.y.y.y.7.r.O.D @.o.v ^ l.Q.P.P.P.P.x.F.F.P.P.L.K.L.P.P.m.m.f.m.M.m.",
"P.P.m.W.!.x.m.m.N.x.).) y -.%.1.3.7.r.4X9X9X9X8Xy.y.0.0.0.0.e.y.1.z G c $.} $. .x _ J.Q.P.P.A.F.Q.P.m.n.n.K.Y.P.P.m.C.f.W.$Xj.",
"R.L.m.#X;Xb.b.m.N.N.Q K +.%.1.%.1.8.4X4X9X0XiXiXiXi.y.0.0.7.0.i.<.Z c Z D G G o.u _ D.Q.P.Q.Q.Q.P.L.L.K.n.K.K.Y.P.m.B.C.oX-Xf.",
"P.E.m.$X*Xb.M.M.N.c.E v ,.*.4.#.%.8.3X3XrX0X7X0XiX0.8X4X+X8.y.4X+.n n n n  ...@.R W ) G.H.G.G.F.Q.S.I.K.n.I.K.P.Q.f.&X&XC.>Xh.",
"m.L.f.V.#X$X=XN.f.Z.Y g w.&.#.3.3.6.5XrX5X8X0X0X8XiX7X0.9Xy.9.0.4.O.+.+.O.%.....#.s u T I K U c./.P.m.Y.K.n.K.L.W.a.&X&XB.oX!.",
"p.I.N.^.*XM.#XC.oX~ f } ,.,.#.>.%.%.8.rXaXsXaX0X+X8X7X7X4X6X4X4X4X4.8.8.3.8.<.%.&.G S } { W W T J.).U.A.Q.P.E.A.~.k.#X&Xm.s.F.",
"p.n.m.x.b.^.>Xs.~ Y #.w.@.#.4.3.3.%.%.4.4X4Xy.0XiXiX7XiX6X7X7X7X7X8.3.5.3.y.7.e.q.e.r.q.r.2X4.^ I J.H.D.G.G.G.Q.k.m.f.N.B.Q.F.",
"d.L.P.m.W.f.x.z.L ,.2X8.3.4.+.3.4.%.G S ..H H $.5XtX9X5X0XtX5XyXrX3Xr.q.q.q.7.q.q.q.4.1.,.w.6.-.P ^ 2._ ) [ ' G.x.~.k.m.A.F.J.",
"P.L.T.P.x.!.` j >.3X3X6.y.4X+.4.<.......H G ..G #.5XaX0X9XyX9X0XyXrXtXyXu.q.1.7.7.4.q.e.4.,.6.6.9.M x M M x x Z.c.x.W.P.A.A.F.",
"/.P.K.S.Q.c.i -..Xr.0.y.0.8.4XiXO...O.%...O.<.3.%.8.aXfX0X0XrX5X6X7XrXeXi.r.9.8.3.5.8.7.4.4.4.,.7.7.q.7.8.9.=.i c.N.P.U.U.U.A.",
"/.A.T.Q.J. Xa ,.4Xy.y.0.0.4X0XiX9X0X8X4X0X0X0.3.4.<.<.3.aX0X7X0XqX7X7X9XtX4X4X8X0X.X4.4.r.3XwX3X3X3Xi.i.e.4.>.:., G.A./.A./.A.",
"g.Q.F.G. X> 3.5Xr.+X0.0.8XiXiXy.9X8X7X5X9X7X9X5X#.4.,.<.4.0XaXuX0X0X0X0X7X7X3X3X6X5X4Xu.u.u.4X5XwXwXwXyXyX7X3X,.>.a D.F.h.(.h.",
"k.Q.G.] p >.5Xq.y.8.8.8XiXiXiX9X9X7X5X6X7X0X9X5X9Xr.4.3.%.4.7.r.0X0X0X0XrX6X6X5X5X5X5X4X8X9XeXyXyXyXwX7X6X6XyX2X>.>.x ' H.J.).",
"`.j.z.K X.,.7.7.3.-.9.iXiXiXiX8X0X9X9X7X9X7X5X5XyX4Xr.5Xt.r.y.4XrX0XyXuXyXrX7X7X5X5X5X5X9X0X9XyX6X0X5X6XrX7X6X0X....M x ] l.).",
"d._.` a 6.,...%. . .8.iXiXiXiX8X7X7X5X8X7X0X0X7XyXyX0XyX9X9XyXyXrX0XrXuXuXyXrXrX0X9X4X9X9X0XeX0XqX7X7X0X7XyX7X4XS S ..s _ z.).",
"p.!.[ 9 ,.&.@... . .8.fXiX9X9X8X0X8X9X9X0X0X9X9X0X0X9X4Xu.9XiXiXrXrXrXrXrXrXrXrXuX0X0X0XiX0X0XiX0X5X0X7Xy.tXrX+.S  .S 9 [ G.!.",
"P.f.Z.8 w.F @.o.+...3.rXiX8X9X9X9X0X7X0X9X7X9X9X8X8X8X6X0X0XiXiXrXrXrXrXrXrXrXrXuXuXiX0X0XiX0X9X0X0X7X0XtXi.1.S  .S D M L 2.l.",
"!.{.:.9 @.D } #.3.O.#.7.4X0X0X9X7X8X9X0X0X8X9X9X4X4X9X9XiX0XiX0XrXuXyXrXrXrXrXqX0X0X0X0X0X7X0X9X0XeX8XrXtX*.N Z S S  .o.p L z.",
"G.z.X.b g c S #.%.&.$.o.4.0XrX4X9X9X9X0X7X9X4X4X9X4X9Xu.0XiXaX0XyXuXuXuXrXrXuXrX0XuXaX0XiX0XiXiX0X9XiXiX$.A A Z n { M m { u E ",
" X~ W uXyXyXm S $.&.$.$.%.3.qX7X0X0X0X8X8X8X9X9X9X4X9X8XaX0XiX0X0XaXuX0XrXuXuXrXuX0XrXrXrXuXrX0XrXrXuX3.m Z D B S c 9 0 w 7 R ",
"v W qX2X2X6X0XV J *.1.$...3.3.rX0X0X0XaXsXiX9X6X8X4X4X9XaXiXiXaX0X0XuXaXuXrXrXuX0XaXuXuXrX5X0XrXaXdX>.M { m c Z n n e e q 7 } ",
"{ 6X2X7X6X6X4X9XZ A 1.1.%.+.-.R / S S S M m 7.fXiXrX4X6XaXsXrX0XaXaXuX0X0XaXtXyX0XuXgXsXgXjXuXuX..} Z D { m { c n V q q r 3 M ",
"d 7XsX4X6X.X0X4X5XJ A 1.%.%.m n S n n S H n n H 4.iXdXsXfXaXaXsX0XiXaX0X0XaXsXuXjX0X#.4.7.#.4.w.D D G A m m m S B e w w w 3 P ",
"d 4.r.uXr.6X4X4X9Xy.H Z 1.S H n n m S S n c S  ...<.4.<.rXdXaXyXaXiXiXaXfXiXsXgX9X#.%.%.#.1.o.@.D F J C D } V V S 7 e 0 > L l.",
"r 4.3.3XfXiX4X4Xy.iXy.A r G n S S m n c Z S  .........H 7.r.uXgXaXsXaXiXfXdXaXyX<.4.3.%.%.4.%.q t % % q 3 r ..B B e 9 > L ' G.",
"B 3.$.$.7.7.iXaXiXqXiXeXJ * n c m Z S Z S ....G H H O.o.o.O.4.u.7X0XiX8X0XiXy.o.$. .$.1.1.@.Z Z V | g g d t B B Z z 8 i l.J.D.",
"c r.#.$.G  .8.9.+X9.<.t.G $ e S S Z  ... . .H ..o...G o.%.<.<.#.3.6.4XqXr.<.G S S } ..%.&.c B r.w.w.>.} @.V q B Z 6 y D.).h.OX",
"e } #.$.&.#.{  . .M m d r # e c V ..H  . ./ O. .o.D ..#.1.%.<.<.%.&.r.3X6.S { } } ..{ S V A w.4.4.>.4.,...{ D 3 u i l.Q.Q.h.OX",
"W 9 b V b X.-.R m S n S d O w e } { H .. .m  . .H ....#.#.%.%.%.&.#.,.yXs ..} S D A D r d 3Xw.w.4.4.q.4.-.+.V w : ].x.P.A.~.h.",
"{.Q - > : E X.b B D Z B e 6 7 c Z o.S S O.G H H ....#.$.<.<.1.<.3.%.4.4.S S } ..F h # C t.,.,.,.4.7.3.r.5.+.D 3 - XXJ.P.E.L.k.",
"~.h.}.].2.: E R d B c e x 5.O S D D D S H G O.G O.#.#.o.#.%.<.%.+.4.o.H ....D } * J tXwX7X2X6.6.8.4.4.3.8.o.7 w 2 ;.G.P.E.j.T.",
"I._.k.c.G.].= = ; . ; i ].].Z.- O S @.} J F A ......o.+.+.+.<.3.<.<.o. .S m o.& &.wXt.5Xr..X6X0.4X4.7.4X#.q t 7 ; XXG.S.K.L.A.",
"I.d.W.Q.F.).z.].:.[.] G.F.D.G.D.[.: O c O.o.G $.o.o.+.+.+.X...#.+.>.>.S S o.& 1.5Xt.t.3X3X0X+X9.4X0.rX7.r r z 7 ; 2.H.P.P.T.j.",
"d.I.T.j.Q.k.).' G.G.f.Q.P.m.L.m.F.l.v.j ; 2 2 w %.%.o.o.o.#.#.o.%...S S } $ q.hX0X4.4X8.4Xr.8.0.0.iX4.m Z c q e 9 > G.Q.P.P.Q.",
"m.m.k.L.P.F.k.~.Q.P.L.m.P.K.K.K.I.m.!.v.j ~ =.Y 8 > 8 y b %.,.#.F @.V D C 3 *.q.5XaX0XaX0X9XiXi.fX<.m n D Z z e 9 o z.F.F.k.A.",
"Q.k._.n.m.P.P.P.n.K.L.m.F.P.L.K.K.k.W.N.Z.oXZ.v.U U I ) y 0 7 t b #.C C C 5 F &.q.w.r.9.0.fXi.hX8.n / n A A B s 9 o l.Q.(.A.A.",
"Q.k.L.P.E.P.m.K.K.n.m.P.m.F.m.m.m.m.N.N.&X&Xb.b.B.~.J.D.I T f Y f f w t t 3 &.#.#.*.+.+.3.8XpX7.n n S S A G c 2 > I G.F.A.(.A.",
"T.P.m.A.E.k.K.K.K.K.P.Q.F.Q.P.P.N.~.f.s.&X&XN.#Xk.P.Q.Q.x.F.G.c.v.4 a | g @ F ,.%.%.3.+.+.+.r.c n G S G r q 8 i 1 J.A.E.T.R.h.",
"P.T.A.P.P.k.T.K.m.K.P.N.P.A.P.T.k.Q.k.N.&X&X^.;Xk.K.K.P.P.Q.Q.Q.b.s. XXX=.4 #.,.%.-.>.+... .n V V D e 9 9 8 K }.G.Q.P.k.A.h.H.",
"p.A.A.U.(.P.P.K.Y.K.P.L.P.A.P.Y.A.P.m.P.^.^.^.:Xm.P.U.U.A.A.k.P.B.B.s.U ;.- Y #.>.>.#.#.*.#.t | z V 9 o U ].x.Q.L.m.(.F.(.F.).",
"( U.U.U.U.F.A.A.n.L.P.A.F.A.A.A.U.Y.P.m.b.b.~.&Xj.A.A.A.R.P.A.~.N.f.j.h.{.|.o W #.} | C F C h f $ X E }.l.x._.n.L.P.x.l.F.(.A.",
"}.H.U.S.A.F.A.J.P.P.A.A.F.H.G.h.S.A.Y.L.m.j.b.k.l.).H.U.A.U.h.j.F.F.OX).x.' ].4   @ @ + @ + @ + :.z.c.l.P.W.W.m.k.F.l.{.F.U.g."
};
