/* XPM */
static char *_9ed3d8d0ddd4c1dabdef408d08011428YyIfvhJDy2GFR9a[] = {
/* columns rows colors chars-per-pixel */
"65 76 144 2 ",
"   c None",
".  c #4F2A13",
"X  c #512F19",
"o  c #4F311A",
"O  c #54321C",
"+  c #553720",
"@  c #553923",
"#  c #5A3C25",
"$  c #5C422C",
"%  c #5F4632",
"&  c #5D4935",
"*  c #534A3D",
"=  c #5F4C38",
"-  c #604732",
";  c #604E3A",
":  c #5F5648",
">  c #615749",
",  c #635A4B",
"<  c #685E4E",
"1  c #665E50",
"2  c #695F50",
"3  c #676051",
"4  c #6B6354",
"5  c #6E6857",
"6  c #6E6758",
"7  c #6F6958",
"8  c #746E5E",
"9  c #75705F",
"0  c #766F60",
"q  c #767060",
"w  c #7B7464",
"e  c #7C7866",
"r  c #7D7668",
"t  c #817C6E",
"y  c #837E70",
"u  c #84806F",
"i  c #868171",
"p  c #868271",
"a  c #878271",
"s  c #878272",
"d  c #878372",
"f  c #878373",
"g  c #868271",
"h  c #888372",
"j  c #888374",
"k  c #888474",
"l  c #898474",
"z  c #888475",
"x  c #898475",
"c  c #898575",
"v  c #8A8575",
"b  c #8B8575",
"n  c #8A8675",
"m  c #888476",
"M  c #898476",
"N  c #898576",
"B  c #8A8576",
"V  c #8B8777",
"C  c #8C8676",
"Z  c #8C8776",
"A  c #8D8776",
"S  c #8C8777",
"D  c #888475",
"F  c #8C8877",
"G  c #8D8877",
"H  c #8B8778",
"J  c #8C8778",
"K  c #8C877A",
"L  c #8C8878",
"P  c #8D8878",
"I  c #8D8978",
"U  c #8C8879",
"Y  c #8D8879",
"T  c #8D8979",
"R  c #8E8878",
"E  c #8E8978",
"W  c #8E8979",
"Q  c #8E8A79",
"!  c #8E897A",
"~  c #8F897A",
"^  c #8E8A7A",
"/  c #8F8A7A",
"(  c #8F8B7A",
")  c #8F8A7B",
"_  c #8F8B7B",
"`  c #8D897D",
"'  c #908A7B",
"]  c #908B7B",
"[  c #908B7F",
"{  c #908C7C",
"}  c #918C7C",
"|  c #918D7C",
" . c #918C7D",
".. c #918D7D",
"X. c #928C7D",
"o. c #928D7D",
"O. c #938E7D",
"+. c #908C7E",
"@. c #908C7F",
"#. c #928D7E",
"$. c #918E7E",
"%. c #928E7E",
"&. c #938E7E",
"*. c #948E7E",
"=. c #8F8C80",
"-. c #908C80",
";. c #918C80",
":. c #908D80",
">. c #918D80",
",. c #908D81",
"<. c #918D81",
"1. c #928D81",
"2. c #918E81",
"3. c #938F83",
"4. c #948F82",
"5. c #938E84",
"6. c #938F84",
"7. c #938F85",
"8. c #918E83",
"9. c #949083",
"0. c #959183",
"q. c #939187",
"w. c #949084",
"e. c #959184",
"r. c #949085",
"t. c #949185",
"y. c #959284",
"u. c #969284",
"i. c #969285",
"p. c #969287",
"a. c #969387",
"s. c #959285",
"d. c #949288",
"f. c #959389",
"g. c #96948B",
"h. c #97948B",
"j. c #97958B",
"k. c #97958B",
"l. c #99968D",
"z. c #9A968D",
"x. c #9A968E",
"c. c #9B978F",
"v. c #9B988F",
"b. c #9C988F",
/* pixels */
"                                                                                                                                  ",
"                                                                                                                                  ",
"                                                                                                                                  ",
"                                                                                                                                  ",
"                                                                                                                                  ",
"                                                                                                                                  ",
"                                                                                                                                  ",
"                                                                                                                                  ",
"                                                                                                                                  ",
"                                                                                                                                  ",
"                                                                                                                                  ",
"                                                                                                                                  ",
"                                                                                                                                  ",
"                                                                                                                                  ",
"                                                                                                                                  ",
"                                                                                                                                  ",
"                                                                                                                                  ",
"                                                                                                                                  ",
"                                                                                                                                  ",
"                                                                                                                                  ",
"                                                        % & & * - & - -                                                           ",
"                                  - - - - - - - ; # ; - t t y m y r r y -                                                         ",
"                                - 8 8 9 y y y y y y y y y t r r y r y r r %                                                       ",
"                              $ 9 8 9 9 y y y y y y y y t t m r r y r y 4 4 %                                                     ",
"                            $ 9 9 8 8 y y y y y y y y t m r y r y r 2 2 4 4 %                                                     ",
"                          $ 9 9 8 8 y y t F ~ ~ y y y t r r r m : 1 > 6 4 6 4 %                                                   ",
"                        $ 8 8 9 8 9 y y ~ ~ ~ ' ~ s s s r i r g : > > > 6 6 4 &                                                   ",
"                        $ 8 8 9 9 9 y t ~ A K K ~ ~ f s H r g r : > > > 2 2 6 6 %                                                 ",
"                        $ 8 9 9 9 8 0 p.R R K K U ~ _ d d r r g r r r w r 6 2 6 - - % % -                                         ",
"                      $ 8 8 8 9 9 0 0 0 5.p.7.5.U ~ I U I _ F ~ r r r r r r r r w r r w r %                                       ",
"                    $ t t 9 9 8 8 0 0 4 2 6 4 6 t._ ~ ~ U U ~ F K w w r r r r r w r r w w w -                                     ",
"                  $ t t t t t 9 0 0 4 4 4 2 2 6 4 =.~ U ~ U U I K K K r r r r r r r w r r w w - - - ; -                           ",
"                $ t t t u t t t 2.4 4 4 4 4 4 w q q k.u.~ U ~ U K ~ _ F e r r r r r r w r w w w w w w w -                         ",
"                $ t t t t t t o.2.c U c c K K q q w q q 9.U ~ ~ ~ ~ U ~ c c k c r r r s s s h h s s r w w %                       ",
"              $ u t r g t u 2.=.c U F U K K U c w w q w w 9.2.~ ~ ~ ~ ~ j c c k f j h k s s A A A A K K w w %                     ",
"            $ t t u u t u _ =.2.~ c c K U c F U F F w q w q w ~ ~ ~ _ U c j c c c c h k F ~ F F A K c A A w w %                   ",
"          $ 9 0 9 9 5 5 2.=.2.=.c c U U K c ~ F ~ ~ ~ D K f c _ ~ ~ o.o.o.o.c c c c c ~ Q F ~ F K A c ~ c 1 1 1 %                 ",
"          $ w 9 5 5 4 5 =.2.=.U U U c K F U F U ~ c ~ D c c o.o.o.o.o.o.o.o.o.o.c F ] _ ~ Q F F K A A A ~ 1 1 1 $                 ",
"          $ q 5 5 5 5 7 2.=.K K K U U U c U F U U K D D c o.X.o.o.o.o.o.o.' o.o.] o._ _ F _ U I F A A 2.< 1 1 1 $                 ",
"          $ q 5 5 5 7 7 8 2.c U c U U c K F U D D K c c _ o._ _ o.o.o.o.o.o.o.o.o.] ] _ ] F ~ ~ F ' 2., , 3 3 1 1 #               ",
"          & & & 4 8 7 7 8 8 2.U ~ c c ~ K F D D f m H m _ _ X.o.o.$.o.2.o.o.o.X.X.o.o._ _ _ ~ ~ A O., < : : < < 1 1 #             ",
"        % K c c % 8 8 7 8 7 8 =.U U K K F D D D H D f H u._ X.X.o.$.o.o.o.o.X.o.o._ X.o.o._ ~ ~ z., , , : : : * * * @             ",
"      # j c j c j & 8 7 7 8 7 8 2.=.=.2.7.t.7.D H D D D t.o.X.2.o.2.$.$.2.o.o.o.o.2._ _ o._ z.k., < , > > > : * * * O             ",
"    # A K j c j K f = 8 8 7 0 8 , , , : , : , 7.t.c D D u.t.o.o.o.o.*.$.o.o.o.o.v.v.c.x.u.u.< < ; < < > > > > * * * +             ",
"    # 7 7.D D D m m f = 8 8 0 > 1 : : : : : 1 : 4 g.k.k.9.u.y.$.o.2.o.o.u.u.u.v.8 8 8 0 0 8 < , < < < ; , > * * * * O             ",
"    @ q 0 q.D D f m m m $ q , > : : 1 1 , , 1 3 4 4 4 5 k.k.y.$.*.*.o.u.u.u.b.0 0 8 8 8 8 , < < < < < < > > * * * o               ",
"    @ q q q q.=.m m f f m * : > : , , : , , 3 3 4 4 4 4 9 9 g.g.u.u.u.u.u.u.0 8 8 0 0 8 0 # # # # # # < > , * * O                 ",
"    + q q 4 6 6 q.=.=.=.=.K o : > > , 3 3 3 3 4 4 4 4 4 9 9 q q s s s s s 3 3 3 2 0 8 0 # w w w 3 3 3 # < , * o                   ",
"    @ q 4 5 4 5 5 4 6 , , , o : : : 3 1 3 4 3 4 4 4 4 4 q q q q 8 s s h 4 3 2 4 5 < 9 $ 9 e e 9 9 3 3 4 $ , O                     ",
"      @ 5 4 5 4 4 5 , , : , . : * 4 3 3 1 1 3 3 4 4 4 8 7 8 7 q 8 8 s 2 < 2 2 2 < 4 $ 9 e 9 e w e e 3 3 * O                       ",
"        O O O 5 5 , : , > : o : * 3 2 3 3 3 3 1 3 4 7 9 8 0 0 8 8 8 h < < 2 4 < # # 9 e e 9 w w e 9 9 5 * @                       ",
"              O 4 : , , : o   . 1 3 3 3 3 3 3 4 4 7 7 7 7 8 8 8 8 8 < < < 2 2 # h h a a e e w w e 9 u = * O                       ",
"                X + O + +       O O 3 3 3 3 3 3 7 7 6 7 7 7 8 8 8 8 1 < < < # s h u u a u u u e 9 n : * * o                       ",
"                                    O O 3 3 4 4 5 5 6 7 7 7 6 8 8 8 < < < # 2.t u u u a u u u s $., * * * o                       ",
"                                        O O O O 6 6 6 4 5 6 5 5 6 < < < # o.9.u u u u u g t u ~ , , , * * * o                     ",
"                                                O O O O 4 6 5 4 4 1 , < @ 8 9 $.$.O.O.A U K u., , , , , * * o                     ",
"                                                        O O O O 4 1 3 < # 8 8 8 8 8 8 _ K t., > , , : , * * O                     ",
"                                                                O O O O # 8 8 8 8 8 8 8 d.> , > , , , , O X                       ",
"                                                                        + 8 8 8 8 8 7 5 > > , , : , . .                           ",
"                                                                        . 8 8 8 8 7 7 6 , > > , . .                               ",
"                                                                          . 8 8 8 5 5 6 > , . .                                   ",
"                                                                            . . . . . . . .                                       ",
"                                                                                                                                  ",
"                                                                                                                                  ",
"                                                                                                                                  ",
"                                                                                                                                  ",
"                                                                                                                                  ",
"                                                                                                                                  ",
"                                                                                                                                  ",
"                                                                                                                                  ",
"                                                                                                                                  ",
"                                                                                                                                  ",
"                                                                                                                                  ",
"                                                                                                                                  ",
"                                                                                                                                  ",
"                                                                                                                                  "
};
